<svg width="144" height="96" viewBox="0 0 144 96" fill="none" xmlns="http://www.w3.org/2000/svg">
<g clip-path="url(#clip0_1858_6344)">
<path d="M114.577 0.651665V40.7694H135.902V33.83H121.918V24.3427H135.312V17.4033H121.918V7.59065H135.902V0.651238L114.577 0.651665ZM79.3335 0.651665H71.9289V26.0252C71.9289 28.5085 72.1813 30.524 72.6858 32.0718C73.19 33.6192 73.7666 34.825 74.4153 35.6887C74.8477 36.2646 75.4237 36.8854 76.1445 37.5512C76.8653 38.217 77.7209 38.8378 78.7117 39.4137C79.7028 39.9896 80.8375 40.4664 82.1168 40.8444C83.396 41.2223 84.7918 41.4113 86.3053 41.4113C89.0438 41.4113 91.4309 40.8267 93.4662 39.6569C95.5021 38.4874 97.0966 37.0926 98.2495 35.473C99.1864 34.1415 99.8077 32.6387 100.114 30.9651C100.42 29.2916 100.574 27.6448 100.574 26.0256V0.652085H93.1691V26.0256C93.1691 26.5294 93.1333 27.2494 93.0612 28.1852C92.9891 29.1209 92.737 30.0565 92.3044 30.9924C91.872 31.928 91.1872 32.7468 90.2509 33.4485C89.314 34.1502 87.9808 34.5012 86.2513 34.5012C84.5218 34.5012 83.1886 34.1502 82.2518 33.4485C81.3149 32.7468 80.6304 31.928 80.1983 30.9924C79.7657 30.0565 79.5136 29.1209 79.4414 28.1852C79.3693 27.2494 79.3335 26.5294 79.3335 26.0256V0.651665ZM41.3751 0.651665V40.7694H60.7896V33.83H48.7022V0.651238L41.3751 0.651665ZM52.0081 55.5327L68.7468 95.6504H60.5932L56.3275 85.2956H42.0186L37.7529 95.6504H29.5993L46.2302 55.5327H52.0081ZM49.2269 66.1234H49.1185L44.5579 78.3193H53.7875L49.2269 66.1234ZM5.0926 0.650391H12.9178C14.0252 0.650391 15.1242 0.668616 16.2139 0.704637C17.3035 0.741083 18.3666 0.849566 19.4027 1.0301C20.4388 1.21105 21.4394 1.5183 22.4042 1.95182C23.3689 2.38578 24.2801 2.98204 25.1376 3.74102C26.1378 4.64452 26.9506 5.77392 27.576 7.12916C28.2012 8.48484 28.5139 9.84901 28.5139 11.2225C28.5139 12.4875 28.3441 13.563 28.0048 14.4483C27.6655 15.3336 27.2544 16.0748 26.7721 16.671C26.2896 17.2673 25.7985 17.7373 25.2984 18.0805C24.7983 18.4238 24.3873 18.6861 24.0657 18.8666C24.7088 19.1196 25.4322 19.4633 26.2362 19.8969C27.0401 20.3308 27.7811 20.9271 28.4602 21.6861C29.1394 22.4451 29.7106 23.4028 30.1754 24.5593C30.64 25.7158 30.8722 27.1436 30.8722 28.842C30.8722 30.0349 30.729 31.1284 30.4434 32.1221C30.1575 33.116 29.7824 34.001 29.3178 34.7785C28.8535 35.5552 28.3265 36.242 27.7369 36.8385C27.1472 37.4346 26.5489 37.95 25.9417 38.3836C25.1912 38.9256 24.3607 39.3501 23.4495 39.6574C22.5383 39.9647 21.6095 40.1994 20.6624 40.3622C19.7158 40.525 18.8136 40.6333 17.956 40.6875C17.1841 40.7363 16.4991 40.7635 15.9011 40.7681L15.7049 40.7689H5.0926V0.650391ZM16.2873 23.1172H12.4126V33.7083H16.1256C16.4844 33.7083 17.0765 33.6816 17.9015 33.6275C18.727 33.573 19.5521 33.3841 20.3771 33.06C21.2022 32.7357 21.9378 32.2132 22.5835 31.4928C23.2292 30.7721 23.5521 29.7633 23.5521 28.4666C23.5521 28.0702 23.4803 27.5659 23.3368 26.9536C23.1933 26.3412 22.8616 25.7561 22.3413 25.1975C21.8209 24.639 21.0857 24.1529 20.1349 23.7384C19.1841 23.3244 17.9015 23.1172 16.2873 23.1172ZM15.4175 7.71187H12.4126V16.3774H14.7853C15.2069 16.3774 15.769 16.3591 16.4721 16.3231C17.1752 16.2871 17.8606 16.1337 18.5282 15.8629C19.1959 15.5921 19.7758 15.159 20.2678 14.5631C20.7599 13.9673 21.006 13.1278 21.006 12.0446C21.006 10.8529 20.5928 9.83289 19.7669 8.98448C18.941 8.13608 17.4913 7.71187 15.4175 7.71187ZM13.014 80.8502V95.6504H20.351V80.8502L33.4186 55.5327H25.3317L16.6557 73.965L8.03328 55.5327H0L13.014 80.8502ZM118.804 55.5334C121.233 55.5334 123.34 55.678 125.126 55.9671C126.912 56.2559 128.448 56.6354 129.734 57.1053C131.02 57.5754 132.092 58.0812 132.949 58.6232C133.807 59.1653 134.521 59.6896 135.092 60.1956C136.021 61.0265 136.888 62.0024 137.691 63.1229C138.495 64.2434 139.191 65.472 139.781 66.8094C140.37 68.1466 140.826 69.5742 141.147 71.0921C141.469 72.6103 141.63 74.1465 141.63 75.7004C141.63 77.5074 141.406 79.2786 140.96 81.0135C140.513 82.7478 139.879 84.3744 139.058 85.8924C138.236 87.4103 137.236 88.7834 136.057 90.0125C134.879 91.2414 133.575 92.2532 132.146 93.0484C131.217 93.5545 130.226 93.9789 129.172 94.3222C128.119 94.6655 127.02 94.9369 125.877 95.1356C124.734 95.3343 123.573 95.4694 122.395 95.5418C121.216 95.6144 120.073 95.6504 118.966 95.6504H109.803L109.803 55.5334H118.804ZM118.52 62.5932H117.124V88.911H118.681C119.684 88.911 120.606 88.8838 121.447 88.8296C122.289 88.775 123.085 88.6843 123.837 88.5575C124.589 88.4309 125.332 88.2407 126.066 87.9867C126.8 87.7328 127.561 87.3882 128.348 86.9535C129.316 86.4095 130.175 85.7301 130.927 84.9144C131.678 84.0989 132.305 83.2018 132.806 82.2228C133.308 81.244 133.684 80.2108 133.934 79.1232C134.185 78.0359 134.31 76.9485 134.31 75.8611C134.31 73.9036 133.926 72.055 133.156 70.3149C132.386 68.5749 131.356 67.1247 130.067 65.9649C128.528 64.5512 126.8 63.6359 124.885 63.2187C122.969 62.8017 120.847 62.5932 118.52 62.5932ZM86.4142 55.5321C88.7185 55.5321 90.626 55.7491 92.1382 56.1828C93.6498 56.6162 94.9817 57.3033 96.1339 58.2427C96.7095 58.7129 97.2768 59.2641 97.8348 59.8962C98.3929 60.5286 98.8969 61.2517 99.3469 62.0648C99.7967 62.878 100.157 63.7722 100.427 64.7482C100.697 65.7241 100.832 66.7904 100.832 67.9468C100.832 68.5975 100.769 69.3382 100.643 70.1696C100.517 71.0012 100.301 71.8503 99.9951 72.7179C99.6891 73.5852 99.2932 74.4346 98.8072 75.266C98.3213 76.0976 97.7182 76.8566 96.9981 77.5431C95.8102 78.6996 94.658 79.4768 93.5422 79.8742C92.4263 80.2717 91.3642 80.5973 90.3565 80.8502L101.21 95.6504H92.2463L81.6627 80.3081H81.5545V95.6504H74.1568V55.5321H86.4142ZM86.1872 62.5932H81.477V74.7894H86.1872C87.6863 74.7894 88.8995 74.5642 89.8272 74.1147C90.7551 73.6651 91.4777 73.1256 91.9952 72.4958C92.5125 71.866 92.8513 71.2002 93.0121 70.499C93.173 69.7976 93.2532 69.1767 93.2532 68.6373C93.2532 68.0978 93.1548 67.477 92.9587 66.7755C92.7623 66.0738 92.3964 65.4086 91.8613 64.7787C91.3258 64.1489 90.6032 63.6274 89.6935 63.2138C88.783 62.8002 87.6144 62.5932 86.1872 62.5932Z" fill="#1F223D"/>
</g>
<defs>
<clipPath id="clip0_1858_6344">
<rect width="143.188" height="95" fill="white" transform="translate(0 0.650391)"/>
</clipPath>
</defs>
</svg>
