<svg width="218" height="72" viewBox="0 0 218 72" fill="none" xmlns="http://www.w3.org/2000/svg">
<path d="M11.3799 20.6104V31.4578H29.5929V38.1349H11.3799V54.4031H4.0791V13.9277H31.7943V20.6048H11.3799V20.6104Z" fill="#1F223D" stroke="#1F223D" stroke-width="0.25" stroke-miterlimit="10"/>
<path d="M37.1699 54.4027V24.7188H44.3545V54.4027H37.1699Z" fill="#1F223D" stroke="#1F223D" stroke-width="0.25" stroke-miterlimit="10"/>
<path d="M78.0004 58.3422C78.0004 60.2849 77.5691 61.8984 76.7007 63.1936C75.8324 64.4888 74.7207 65.5049 73.3656 66.2474C72.0105 66.9899 70.4785 67.5147 68.7861 67.8162C67.088 68.1233 65.4288 68.2741 63.8083 68.2741C61.9996 68.2741 60.1966 68.14 58.4102 67.872C56.6182 67.604 54.9533 66.9229 53.4047 65.8175C52.2764 65.0191 51.397 64.0869 50.7775 63.0206C50.1581 61.9542 49.8428 60.7205 49.8428 59.3079C49.8428 58.0127 50.1471 56.8236 50.7499 55.7406C51.3528 54.6574 52.2211 53.8312 53.3493 53.2562C52.4092 52.7259 51.679 51.9888 51.1703 51.0566C50.6614 50.1241 50.407 49.164 50.407 48.1702C50.407 45.6189 51.574 43.6258 53.9135 42.1743C53.0064 41.2587 52.2929 40.198 51.7675 38.9753C51.2365 37.7583 50.9766 36.3904 50.9766 34.8664C50.9766 33.1134 51.2974 31.5557 51.9391 30.1824C52.5806 28.809 53.4489 27.6701 54.5441 26.7546C55.6392 25.8388 56.9112 25.1467 58.3603 24.6721C59.8095 24.1976 61.3636 23.9575 63.0229 23.9575C64.2285 23.9575 65.4012 24.1195 66.5294 24.4433C67.6577 24.7671 68.7141 25.2137 69.6987 25.783C70.3401 24.4879 71.1864 23.55 72.2428 22.9582C73.2992 22.3664 74.4497 22.0762 75.694 22.0762C75.9209 22.0762 76.2416 22.0762 76.6565 22.0762C77.0713 22.0762 77.3921 22.1151 77.6188 22.1878V27.726L77.0548 27.6701C76.2251 27.6701 75.4784 27.8041 74.8202 28.072C74.1621 28.34 73.714 28.8369 73.4929 29.5571C74.5105 31.2319 75.0194 33.0184 75.0194 34.9222C75.0194 36.6361 74.6875 38.1601 74.0293 39.489C73.3712 40.8231 72.4918 41.9454 71.4022 42.8554C70.307 43.771 69.0349 44.4744 67.5858 44.9657C66.1312 45.4626 64.6157 45.7081 63.0339 45.7081C61.3747 45.7081 59.7928 45.4403 58.2829 44.9098C57.9455 45.0997 57.6136 45.3789 57.293 45.7362C56.9722 46.0989 56.8117 46.5289 56.8117 47.0201C56.8117 47.8967 57.1602 48.4773 57.857 48.7619C58.554 49.0468 59.2785 49.1919 60.0362 49.1919H64.8979C65.6114 49.1919 66.3856 49.203 67.2153 49.2198C68.0449 49.2421 68.8856 49.3147 69.7319 49.4487C70.5781 49.5827 71.4076 49.7837 72.2207 50.046C73.0337 50.314 73.7749 50.6936 74.4552 51.185C75.7383 52.0615 76.6509 53.1111 77.1984 54.3226C77.7294 55.5619 78.0004 56.8962 78.0004 58.3422ZM71.3302 58.5152C71.3302 57.5996 71.0868 56.8962 70.5946 56.4048C70.1024 55.908 69.5106 55.5507 68.8136 55.3218C68.1169 55.093 67.3591 54.9589 66.5516 54.9254C65.7385 54.8864 64.9975 54.8696 64.317 54.8696H58.7752C58.0175 55.0984 57.3869 55.5284 56.878 56.1537C56.3693 56.7844 56.1149 57.5717 56.1149 58.5208C56.1149 59.4699 56.3693 60.2124 56.878 60.7484C57.3869 61.2787 58.0175 61.6919 58.7752 61.9765C59.5273 62.2613 60.3404 62.44 61.2087 62.5181C62.0771 62.5962 62.8515 62.6297 63.5261 62.6297C64.2396 62.6297 65.0526 62.6018 65.9598 62.546C66.8668 62.4902 67.713 62.3282 68.5039 62.0602C69.295 61.7922 69.9642 61.3847 70.5117 60.8321C71.0538 60.2738 71.3302 59.5034 71.3302 58.5152ZM68.2164 34.8775C68.2164 33.2808 67.7518 31.9577 66.8281 30.9081C65.9045 29.8586 64.6324 29.3393 63.0118 29.3393C61.3913 29.3393 60.1191 29.8642 59.1955 30.9081C58.2718 31.9521 57.8073 33.2752 57.8073 34.8775C57.8073 36.4741 58.2663 37.7918 59.1955 38.819C60.1191 39.8462 61.3913 40.3598 63.0118 40.3598C64.6324 40.3598 65.9045 39.8462 66.8281 38.819C67.7572 37.7918 68.2164 36.4798 68.2164 34.8775Z" fill="#1F223D" stroke="#1F223D" stroke-width="0.25" stroke-miterlimit="10"/>
<path d="M116.798 54.4033V35.9633C116.798 34.1376 116.488 32.7195 115.863 31.709C115.244 30.7041 114.044 30.1961 112.274 30.1961C111.256 30.1961 110.388 30.4362 109.674 30.9107C108.961 31.3852 108.363 32.0162 107.893 32.7922C107.423 33.5737 107.075 34.4391 106.848 35.3882C106.621 36.3429 106.511 37.2695 106.511 38.1851V54.3977H99.4975V35.9633C99.4975 34.1376 99.1877 32.7195 98.5627 31.709C97.9432 30.7041 96.743 30.1961 94.9731 30.1961C93.9555 30.1961 93.0872 30.4362 92.3737 30.9107C91.6602 31.3852 91.0518 32.0162 90.565 32.7922C90.0728 33.5737 89.7188 34.4391 89.4921 35.3882C89.2654 36.3429 89.1547 37.2695 89.1547 38.1851V54.3977H82.1416V24.7193H88.0209L88.5849 28.6608C89.4146 27.293 90.5264 26.1709 91.9201 25.2944C93.3139 24.4178 94.9952 23.9824 96.9532 23.9824C99.0272 23.9824 100.764 24.4124 102.158 25.2665C103.552 26.1207 104.63 27.3155 105.382 28.8339C106.251 27.2763 107.445 26.0759 108.972 25.2386C110.498 24.4012 112.263 23.9824 114.259 23.9824C117.428 23.9824 119.812 24.9427 121.416 26.8688C123.02 28.7949 123.822 31.2903 123.822 34.3776V54.4143H116.798V54.4033Z" fill="#1F223D" stroke="#1F223D" stroke-width="0.25" stroke-miterlimit="10"/>
<path d="M155.935 39.7917C155.897 40.0597 155.88 40.3052 155.88 40.5342V41.7902H136.201C136.201 42.9348 136.378 44.0178 136.738 45.045C137.097 46.0724 137.639 46.9265 138.347 47.6132C138.878 48.1101 139.492 48.5342 140.189 48.8972C140.886 49.2601 141.721 49.4388 142.706 49.4388C143.723 49.4388 144.564 49.3326 145.222 49.126C145.88 48.9195 146.478 48.5455 147.003 48.0151C147.678 47.3284 148.153 46.4909 148.419 45.5029H155.205C155.128 46.3793 154.835 47.3396 154.326 48.3891C153.817 49.4388 153.281 50.2985 152.716 50.9852C151.472 52.4703 149.984 53.5366 148.248 54.1842C146.511 54.8318 144.702 55.1556 142.822 55.1556C140.781 55.1556 139.022 54.8206 137.534 54.1563C136.041 53.4919 134.713 52.6042 133.546 51.5044C132.075 50.0584 130.952 48.3277 130.178 46.3124C129.404 44.297 129.017 42.0695 129.017 39.6353C129.017 37.2403 129.365 35.0183 130.062 32.9861C130.759 30.9484 131.826 29.2122 133.253 27.7606C134.348 26.6217 135.676 25.7061 137.241 25.0195C138.806 24.3328 140.604 23.9922 142.645 23.9922C144.835 23.9922 146.865 24.4388 148.756 25.3321C150.637 26.2254 152.185 27.6043 153.397 29.4689C154.486 31.1047 155.183 32.7741 155.487 34.4657C155.78 36.1461 155.935 37.927 155.935 39.7917ZM148.867 36.5927C148.823 34.4265 148.22 32.6902 147.053 31.4006C146.566 30.8703 145.952 30.4515 145.216 30.1444C144.481 29.8431 143.607 29.6867 142.584 29.6867C141.494 29.6867 140.532 29.8989 139.697 30.3176C138.873 30.7362 138.187 31.289 137.661 31.9757C137.13 32.6233 136.754 33.31 136.528 34.0301C136.306 34.7503 136.168 35.6101 136.135 36.5983H148.867V36.5927Z" fill="#1F223D" stroke="#1F223D" stroke-width="0.25" stroke-miterlimit="10"/>
<path d="M179.408 54.4026V36.1915C179.408 34.444 179.065 33.0708 178.391 32.0825C177.711 31.0943 176.433 30.5975 174.547 30.5975C173.302 30.5975 172.262 30.9492 171.433 31.6526C170.602 32.3561 169.945 33.2605 169.453 34.3659C168.961 35.4714 168.679 36.7553 168.606 38.2181C168.529 39.6863 168.491 41.0429 168.491 42.2991V54.4026H161.422V24.7188H167.361L167.871 28.5431C168.74 26.9854 169.973 25.8297 171.577 25.0872C173.18 24.3447 174.829 23.9707 176.522 23.9707C178.109 23.9707 179.514 24.2387 180.736 24.769C181.958 25.305 182.998 26.0363 183.85 26.9687C184.695 27.901 185.349 29.0231 185.801 30.3351C186.256 31.6471 186.482 33.0651 186.482 34.5892V54.397H179.408V54.4026Z" fill="#1F223D" stroke="#1F223D" stroke-width="0.25" stroke-miterlimit="10"/>
<path d="M210.342 54.0042C208.307 54.5346 206.287 54.8025 204.291 54.8025C201.311 54.8025 199.087 53.993 197.615 52.374C196.144 50.7551 195.409 48.5219 195.409 45.6691V30.5955H190.033V24.7167H195.409V17.18L202.478 15.4102V24.7167H209.888V30.5955H202.478V45.0382C202.478 46.1827 202.737 47.0089 203.269 47.5226C203.799 48.0362 204.629 48.293 205.757 48.293C206.508 48.293 207.217 48.2763 207.876 48.2372C208.533 48.1981 209.352 48.1256 210.336 48.0083V54.0042H210.342Z" fill="#1F223D" stroke="#1F223D" stroke-width="0.25" stroke-miterlimit="10"/>
<path fill-rule="evenodd" clip-rule="evenodd" d="M44.9424 18.1349C44.9424 15.913 43.1616 13.959 40.7501 13.959C38.2889 13.959 36.5576 15.913 36.5576 18.1349C36.5576 20.4629 38.2889 22.2049 40.7501 22.2049C43.1616 22.2049 44.9424 20.4629 44.9424 18.1349Z" fill="#1F223D"/>
</svg>
