<svg width="331" height="53" viewBox="0 0 331 53" fill="none" xmlns="http://www.w3.org/2000/svg">
<path d="M12.6106 0.218487L2.0998 6.19054C1.74147 6.30998 1.74147 6.78774 2.0998 6.90718L26.7047 21.0012C26.9435 21.1207 27.3019 21.1207 27.5407 21.0012L38.0516 15.0292C38.4099 14.9097 38.4099 14.432 38.0516 14.3125L13.5661 0.218487C13.2078 0.099046 12.9689 0.099046 12.6106 0.218487Z" fill="#1F223D"/>
<path d="M40.679 0.219081L30.1682 6.19113C29.8098 6.31058 29.8098 6.78834 30.1682 6.90778L40.7984 13.1187C41.0373 13.2382 41.3956 13.2382 41.6345 13.1187L52.1453 7.14666C52.5036 7.02722 52.5036 6.54946 52.1453 6.43002L41.5151 0.33852C41.2762 0.0996382 40.9179 0.09964 40.679 0.219081Z" fill="#1F223D"/>
<path d="M28.376 24.2266V36.2901C28.376 36.6484 28.7343 36.8873 29.0926 36.6484L39.7229 30.5569C39.8423 30.4375 39.9618 30.3181 39.9618 30.1986V17.7767C39.9618 17.4184 39.6034 17.1795 39.2451 17.4184L28.8537 23.3905C28.4954 23.6294 28.376 23.8682 28.376 24.2266Z" fill="#1F223D"/>
<path d="M42.7092 15.3879L53.22 9.41588C53.4589 9.29644 53.9367 9.41589 53.9367 9.77421V37.9623C53.9367 38.3206 53.8172 38.5595 53.4589 38.6789L28.9735 52.773C28.7346 52.8924 28.2568 52.773 28.2568 52.4147V40.3511C28.2568 39.9928 28.3763 39.7539 28.7346 39.6345L41.8731 32.1097C42.112 31.9902 42.3509 31.6319 42.3509 31.2736V16.224C42.3509 15.8657 42.4703 15.6268 42.7092 15.3879Z" fill="#1F223D"/>
<path d="M25.9877 24.1061V36.5279C25.9877 36.7668 25.7489 36.8863 25.51 36.7668L12.6103 29.3615C12.3715 29.242 11.8937 29.3615 11.8937 29.7198V44.2916C11.8937 44.6499 11.5354 44.8888 11.1771 44.6499L0.66624 38.6779C0.427358 38.5584 0.188477 38.2001 0.188477 37.9612V9.6537C0.188477 9.29538 0.5468 9.05649 0.905123 9.29538L25.51 23.3894C25.7489 23.5089 25.9877 23.8672 25.9877 24.1061Z" fill="#1F223D"/>
<path d="M14.8797 33.4236L25.3905 39.5151C25.6294 39.6346 25.8683 39.9929 25.8683 40.2318V52.4148C25.8683 52.7731 25.51 53.012 25.1517 52.7731L14.6408 46.6816C14.402 46.5622 14.1631 46.2038 14.1631 45.965V33.9014C14.2825 33.5431 14.6408 33.3042 14.8797 33.4236Z" fill="#1F223D"/>
<path d="M94.6654 18.4929C94.6654 23.6289 91.2016 26.6149 87.0212 27.0927C85.5879 27.2121 84.6324 27.3316 82.9602 27.3316H78.7798V37.9618H73.166V9.6543H82.9602C84.6324 9.6543 85.7073 9.6543 87.0212 9.89318C91.3211 10.3709 94.6654 13.2375 94.6654 18.4929ZM88.6934 18.4929C88.6934 15.8652 87.2601 14.5514 85.349 14.3125C84.7518 14.1931 83.9157 14.1931 82.8407 14.1931H78.7798V22.7928H82.8407C83.9157 22.7928 84.7518 22.7928 85.349 22.6734C87.3795 22.315 88.6934 21.1206 88.6934 18.4929Z" fill="#1F223D"/>
<path d="M110.075 15.7444V20.2832C105.417 19.9249 103.028 22.0748 103.028 27.9274V37.841H97.4141V16.1028H103.028V20.0443L104.7 17.0583C105.775 16.1028 107.208 15.625 108.403 15.625C109.119 15.625 109.597 15.625 110.075 15.7444Z" fill="#1F223D"/>
<path d="M133.604 26.9742C133.604 33.5434 129.543 38.4405 122.377 38.4405C115.21 38.4405 111.149 33.5434 111.149 26.9742C111.149 20.4049 115.21 15.5078 122.377 15.5078C129.543 15.5078 133.604 20.4049 133.604 26.9742ZM127.752 26.9742C127.752 22.316 125.721 19.4494 122.377 19.4494C119.033 19.4494 117.002 22.1965 117.002 26.9742C117.002 31.6324 119.033 34.4989 122.377 34.4989C125.721 34.3795 127.752 31.6324 127.752 26.9742Z" fill="#1F223D"/>
<path d="M143.757 30.078V31.989C143.876 34.139 144.712 34.6167 147.818 34.3778V38.0805C146.504 38.3194 145.31 38.3194 144.115 38.3194C139.935 38.3194 138.382 36.8861 138.143 33.9001C138.024 32.9446 138.024 31.989 138.024 30.7946V20.0449H134.799V16.3422H138.024V9.17578H143.637V16.3422H148.176V20.0449H143.637V30.078H143.757Z" fill="#1F223D"/>
<path d="M172.183 26.9742C172.183 33.5434 168.122 38.4405 160.956 38.4405C153.79 38.4405 149.729 33.5434 149.729 26.9742C149.729 20.4049 153.79 15.5078 160.956 15.5078C168.122 15.5078 172.183 20.4049 172.183 26.9742ZM166.45 26.9742C166.45 22.316 164.42 19.4494 161.075 19.4494C157.731 19.4494 155.701 22.1965 155.701 26.9742C155.701 31.6324 157.731 34.4989 161.075 34.4989C164.3 34.3795 166.45 31.6324 166.45 26.9742Z" fill="#1F223D"/>
<path d="M194.997 23.9868H189.502C189.025 20.8814 187.352 19.5675 184.964 19.5675C182.097 19.5675 180.066 21.8369 180.066 26.8534C180.066 32.2283 182.097 34.4976 184.964 34.4976C187.113 34.4976 188.786 33.0643 189.383 30.3172H194.997C194.041 35.6921 190.1 38.4392 184.605 38.4392C178.633 38.4392 174.214 34.7365 174.214 27.2117C174.214 19.8064 179.111 15.6259 185.083 15.6259C190.936 15.5065 194.638 19.0897 194.997 23.9868Z" fill="#1F223D"/>
<path d="M219.482 26.9742C219.482 33.5434 215.421 38.4405 208.255 38.4405C201.088 38.4405 197.027 33.5434 197.027 26.9742C197.027 20.4049 201.088 15.5078 208.255 15.5078C215.421 15.5078 219.482 20.4049 219.482 26.9742ZM213.63 26.9742C213.63 22.316 211.599 19.4494 208.255 19.4494C204.91 19.4494 202.88 22.1965 202.88 26.9742C202.88 31.6324 204.91 34.4989 208.255 34.4989C211.599 34.3795 213.63 31.6324 213.63 26.9742Z" fill="#1F223D"/>
<path d="M221.991 37.8419V9.05664H227.605V37.8419H221.991Z" fill="#1F223D"/>
<path d="M262.481 37.8419H242.176V9.05664H247.79V33.1837H262.481V37.8419Z" fill="#1F223D"/>
<path d="M277.65 34.6187L276.575 36.8881C275.022 37.963 273.231 38.3214 271.2 38.3214C267.497 38.3214 264.272 36.1714 264.272 31.991C264.272 27.2133 268.333 24.4662 276.217 24.4662H277.65V23.9884C277.65 23.3912 277.65 22.6746 277.53 21.9579C277.411 20.4052 276.336 19.3302 274.186 19.3302C271.917 19.3302 270.722 20.6441 270.603 23.0329H265.109C265.228 18.1358 269.289 15.3887 274.425 15.3887C280.516 15.3887 282.786 18.0164 283.144 21.8385C283.264 22.9135 283.264 23.9884 283.264 25.1828V32.2299C283.264 33.902 283.383 35.3353 283.622 37.7242H278.128L277.65 34.6187ZM277.65 29.841V28.0494C273.111 27.6911 270.125 28.7661 270.125 31.6327C270.125 33.5437 271.439 34.4992 273.469 34.4992C275.739 34.3798 277.65 32.8271 277.65 29.841Z" fill="#1F223D"/>
<path d="M310.019 26.6145C310.019 34.4976 305.241 38.4391 299.627 38.4391C297.836 38.4391 295.686 37.9614 294.491 37.2447L293.058 34.9753V37.8419H287.444V9.05664H293.058V19.448L294.73 17.0592C295.925 16.1037 298.194 15.5065 300.344 15.5065C306.435 15.5065 310.019 20.1647 310.019 26.6145ZM304.166 26.9728C304.166 22.5535 302.016 19.5675 298.672 19.5675C295.566 19.5675 293.058 21.4785 293.058 26.7339V27.8089C293.058 32.706 295.925 34.4976 298.433 34.4976C301.777 34.3781 304.166 31.9893 304.166 26.9728Z" fill="#1F223D"/>
<path d="M329.845 22.4357H324.232C323.873 20.4052 322.798 19.3302 320.887 19.3302C319.215 19.3302 318.26 20.2858 318.26 21.5996C318.26 23.2718 319.574 24.1079 323.157 24.944C327.576 26.1384 330.204 27.93 330.204 31.8715C330.204 36.2909 326.262 38.3214 321.246 38.3214C315.99 38.3214 312.288 36.052 311.69 31.1549H317.304C317.782 33.5437 319.335 34.6187 321.365 34.6187C323.157 34.6187 324.59 33.902 324.59 32.2299C324.59 30.5577 323.157 29.6022 319.454 28.6466C315.393 27.5717 312.646 25.8995 312.646 22.0774C312.646 17.8969 316.11 15.3887 321.246 15.3887C326.382 15.5081 329.368 18.4941 329.845 22.4357Z" fill="#1F223D"/>
</svg>
