<svg width="32" height="32" viewBox="0 0 32 32" fill="none" xmlns="http://www.w3.org/2000/svg">
    <g clip-path="url(#clip0_16_97)">
    <g clip-path="url(#clip1_16_97)">
    <path d="M16 32C24.8366 32 32 24.8366 32 16C32 7.16344 24.8366 0 16 0C7.16344 0 0 7.16344 0 16C0 24.8366 7.16344 32 16 32Z" fill="#6446FA"/>
    <path d="M17.7372 14.429C19.6327 14.954 21.4229 15.269 22.6866 15.269C26.267 15.269 27.636 12.4338 27.636 10.5437C27.636 10.3337 27.636 9.2836 27.0042 8.23353C26.1617 6.65842 24.6874 5.81836 22.6866 5.81836C19.8433 5.81836 18.0531 8.44354 16.4735 11.6988C14.9992 11.2787 13.5249 10.7537 12.2613 10.3337V10.2287C12.2613 8.12852 10.5764 6.4484 8.47023 6.4484C6.3641 6.4484 4.6792 8.12852 4.6792 10.2287C4.6792 12.3288 6.3641 14.0089 8.47023 14.0089C9.73391 14.0089 10.787 13.3789 11.5241 12.5388C12.7878 12.9589 14.1568 13.3789 15.6311 13.9039C15.4205 14.429 15.2098 14.849 14.9992 15.374C14.7886 15.8991 14.578 16.5291 14.2621 17.0541C12.3666 16.5291 10.5764 16.2141 9.31268 16.2141C6.78533 16.2141 5.62696 17.4742 4.99512 18.5242C4.46859 19.3643 4.36328 20.4144 4.36328 20.6244C4.36328 22.6195 5.73226 25.4547 9.31268 25.4547C12.156 25.4547 13.9462 22.8295 15.5258 19.5743C17.0001 19.9943 18.4743 20.5194 19.738 20.9394V21.0444C19.738 23.1446 21.4229 24.8247 23.5291 24.8247C25.6352 24.8247 27.3201 23.1446 27.3201 21.0444C27.3201 18.9443 25.6352 17.2642 23.5291 17.2642C22.2654 17.2642 21.2123 17.8942 20.4752 18.7343C19.2115 18.3142 17.8425 17.8942 16.3682 17.3692C16.5788 16.8441 16.7894 16.4241 17.0001 15.8991C17.2107 15.584 17.4213 14.954 17.7372 14.429ZM22.5813 8.12852C23.6344 8.12852 24.4768 8.44354 24.898 9.2836C25.214 9.91364 25.214 10.3337 25.214 10.6487C25.214 10.8587 25.214 11.3837 24.898 12.0138C24.4768 12.7488 23.7397 13.1689 22.5813 13.1689C21.6335 13.1689 20.2646 12.8538 18.5797 12.4338C19.8433 9.91364 21.107 8.12852 22.5813 8.12852ZM9.31268 23.2496C6.78533 23.2496 6.68002 21.1494 6.68002 20.6244C6.68002 20.4144 6.68002 19.9943 6.99594 19.3643C7.41717 18.6292 8.15431 18.3142 9.31268 18.3142C10.2604 18.3142 11.6294 18.6293 13.3143 19.0493C12.0507 21.4644 10.787 23.2496 9.31268 23.2496Z" fill="#EEEEF5"/>
    </g>
    </g>
    <defs>
    <clipPath id="clip0_16_97">
    <rect width="32" height="32" fill="white"/>
    </clipPath>
    <clipPath id="clip1_16_97">
    <rect width="32" height="32" fill="white"/>
    </clipPath>
    </defs>
</svg>