<svg width="139" height="30" viewBox="0 0 139 30" fill="none" xmlns="http://www.w3.org/2000/svg">
<path fill-rule="evenodd" clip-rule="evenodd" d="M15.1559 16.9801C15.1559 16.9801 17.0931 17.4923 19.9286 18.8029C20.8723 17.8981 22.1594 17.3411 23.5781 17.3411C26.4728 17.3411 28.8195 19.66 28.8195 22.5205C28.8195 25.381 26.4728 27.6998 23.5781 27.6998C20.6834 27.6998 18.3368 25.381 18.3368 22.5205C18.3368 22.4236 18.3395 22.3272 18.3448 22.2316C17.1029 21.4812 15.662 20.6682 14.0648 20.243L13.9584 20.5603C12.9133 23.677 11.8256 26.9211 10.0292 28.3006C8.58986 29.406 7.64919 29.5697 6.26732 29.5697C2.71188 29.5697 -0.121368 26.6857 -0.121368 23.1917C-0.121368 21.7497 0.267508 19.6422 1.93412 18.0893C3.65629 16.5364 6.32288 15.8709 9.82277 16.1482C10.7672 16.2036 11.7116 16.3146 12.6005 16.4809C12.6845 16.2292 12.7991 15.881 12.9242 15.5008L12.9244 15.5002C13.2126 14.6241 13.5566 13.5787 13.7115 13.1533C11.9836 12.722 10.3606 12.1336 8.89365 11.3879C7.9542 12.2678 6.68522 12.8076 5.28867 12.8076C2.39396 12.8076 0.0473304 10.4887 0.0473304 7.6282C0.0473304 4.76772 2.39396 2.44884 5.28867 2.44884C8.18339 2.44884 10.53 4.76772 10.53 7.6282C10.53 7.78934 10.5226 7.94877 10.508 8.10617C11.7496 8.83599 13.2363 9.46861 14.8232 9.89108C14.8782 9.72267 14.9332 9.55381 14.9882 9.38486C15.985 6.32402 16.9932 3.22817 18.4952 2.04679C20.0801 0.800192 21.5366 0.563721 22.6002 0.563721C26.1556 0.563721 28.9888 3.44768 28.9888 6.9417C28.9888 8.38368 28.6 10.4912 26.9333 12.0441C25.2112 13.597 22.5446 14.2625 19.0447 13.9852C18.1003 13.9297 17.1559 13.8188 16.267 13.6524C16.1829 13.9043 16.0682 14.2529 15.9431 14.6333C15.6548 15.5093 15.3109 16.5547 15.1559 16.9801ZM17.343 10.4528C20.1786 10.9777 24.0217 11.1058 25.8778 9.16013C26.4889 8.4946 26.7111 7.60723 26.6 6.44255C26.4334 5.16696 25.1001 1.78386 23.2112 1.39563C20.4128 1.00271 18.454 7.04062 17.5896 9.70486C17.4939 10 17.4116 10.2538 17.343 10.4528ZM11.5331 19.6989C9.09343 19.1577 4.6874 18.9991 2.87854 20.9178C2.26745 21.5833 2.04523 22.4707 2.15634 23.6354C2.323 24.911 3.65629 28.2941 5.54512 28.6823C8.20011 29.164 10.5025 22.6236 11.3746 20.1464C11.4342 19.9771 11.4872 19.8267 11.5331 19.6989ZM43.6535 6.85028C43.6535 3.82613 45.1549 2.34155 48.2133 2.34155H52.1401V6.13529L49.6035 6.13549C47.9227 6.13549 47.9274 6.76496 47.9343 7.70582C47.9377 8.16651 47.9369 8.62726 47.936 9.088V9.08922C47.9356 9.29598 47.9352 9.50274 47.9352 9.70948L52.1401 9.70928V13.5032L47.9352 13.5034V27.1946H43.6535V13.5034H40.4839V9.70948H43.6535V6.85028ZM59.4749 9.74363C59.4749 9.74363 58.8797 9.73074 57.3071 9.73074C55.7345 9.73074 55.1867 9.74363 55.1867 9.74363V27.2287H59.4749V9.74363ZM96.3803 27.2496V9.76453L97.8908 9.76463H97.8928H97.8944H97.8958H97.897H97.898H97.8988H97.8995C98.7335 9.76473 99.4883 9.76481 100.672 9.76453V27.2496H96.3803ZM131.389 9.37964C128.608 9.37964 127.385 10.4793 126.94 11.1391L126.44 11.8539V9.76453H122.158V27.2496H126.44V16.5826C126.44 13.7234 128.553 12.6787 130.332 12.6787C132.112 12.6787 134.225 13.7234 134.225 16.5826V27.2496H138.506V16.3627C138.451 11.2491 134.781 9.37964 131.389 9.37964ZM119.6 19.6068V17.1874C119.6 12.1839 116.708 9.37964 111.426 9.37964C106.143 9.37964 103.251 12.1839 103.251 17.1874V19.6068C103.251 24.6654 106.143 27.4146 111.426 27.4146C116.708 27.4146 119.6 24.6104 119.6 19.6068ZM111.426 12.7337C113.761 12.7337 115.04 14.3832 115.04 16.5826V20.2116C115.04 22.411 113.761 24.2255 111.426 24.2255C109.09 24.2255 107.811 22.411 107.811 20.2116V16.5826C107.811 14.3832 109.09 12.7337 111.426 12.7337ZM70.6125 16.5765C70.2587 16.4993 69.914 16.4342 69.585 16.3721C67.9107 16.0561 66.6434 15.8169 66.6434 14.4382C66.6434 13.2949 67.8963 12.6534 69.3977 12.6534C71.2473 12.6534 72.0553 13.2581 72.1929 14.4932H76.2288C75.9493 11.4325 73.9141 9.4896 69.2569 9.4896C66.1819 9.4896 62.4453 10.7235 62.4453 14.4932C62.4453 18.5265 65.9304 19.5506 69.5757 20.3628C72.0426 20.9125 72.7285 21.275 72.7285 22.4536C72.7285 23.6321 71.1557 24.2685 69.6519 24.2721C67.9965 24.2721 66.0341 23.9246 66.0341 21.7338H61.8446C61.9997 25.7802 65.1155 27.6078 69.4121 27.6078C74.144 27.6078 76.9544 25.7616 76.9544 22.2901C76.9544 18.3198 73.4961 17.206 70.6125 16.5765ZM86.6316 16.3721L86.6314 16.3721C84.9571 16.0561 83.6898 15.8169 83.6898 14.4382C83.6898 13.2949 84.9427 12.6534 86.4441 12.6534C88.2937 12.6534 89.1017 13.2581 89.2393 14.4932H93.2752C92.9957 11.4325 90.9605 9.4896 86.3033 9.4896C83.2283 9.4896 79.4917 10.7235 79.4917 14.4932C79.4917 18.5265 82.9768 19.5506 86.6221 20.3628C89.089 20.9125 89.7749 21.275 89.7749 22.4536C89.7749 23.6321 88.2021 24.2685 86.6983 24.2721C85.0429 24.2721 83.0805 23.9246 83.0805 21.7338H78.891C79.0461 25.7802 82.1619 27.6078 86.4585 27.6078C91.1904 27.6078 94.0008 25.7616 94.0008 22.2901C94.0008 18.3198 90.5425 17.206 87.6589 16.5765C87.3052 16.4993 86.9607 16.4343 86.6318 16.3722L86.6316 16.3721ZM59.7891 5.10694C59.7891 6.44255 58.6934 7.52527 57.3418 7.52527C55.9902 7.52527 54.8946 6.44255 54.8946 5.10694C54.8946 3.77134 55.9902 2.68862 57.3418 2.68862C58.6934 2.68862 59.7891 3.77134 59.7891 5.10694ZM100.992 5.1069C100.992 6.44251 99.8965 7.52523 98.5449 7.52523C97.1933 7.52523 96.0976 6.44251 96.0976 5.1069C96.0976 3.7713 97.1933 2.68858 98.5449 2.68858C99.8965 2.68858 100.992 3.7713 100.992 5.1069Z" fill="#CBCCDE"/>
</svg>
