<svg width="615" height="132" viewBox="0 0 615 132" fill="none" xmlns="http://www.w3.org/2000/svg">
<path fill-rule="evenodd" clip-rule="evenodd" d="M89.3077 82.6127C76.6999 76.7149 68.0862 74.4099 68.0862 74.4099C68.7751 72.4958 70.3045 67.7915 71.5861 63.8494C72.1427 62.1375 72.6526 60.5689 73.0266 59.4355C76.9788 60.1842 81.1781 60.6834 85.3774 60.9329C100.939 62.1808 112.796 59.1859 120.454 52.1979C127.864 45.2098 129.593 35.726 129.593 29.2371C129.593 13.514 116.995 0.536227 101.186 0.536227C96.4572 0.536227 89.981 1.60035 82.934 7.21002C76.2556 12.5262 71.7727 26.4576 67.3405 40.2314C67.0958 40.9916 66.8513 41.7515 66.6066 42.5093C59.5506 40.6083 52.9402 37.7615 47.4195 34.4772C47.4843 33.769 47.5174 33.0515 47.5174 32.3264C47.5174 19.4542 37.0833 9.01926 24.2121 9.01926C11.341 9.01926 0.906876 19.4542 0.906876 32.3264C0.906876 45.1985 11.341 55.6335 24.2121 55.6335C30.4218 55.6335 36.0642 53.2047 40.2414 49.2452C46.7642 52.6006 53.9806 55.2486 61.6638 57.1893C60.9749 59.1034 59.4454 63.8081 58.1638 67.7503C57.6072 69.4622 57.0974 71.0303 56.7235 72.1637C52.7712 71.415 48.5719 70.9159 44.3727 70.6663C28.8106 69.4184 16.9539 72.4133 9.29637 79.4013C1.88588 86.3894 0.156769 95.8732 0.156769 102.362C0.156769 118.085 12.7546 131.063 28.5636 131.063C34.708 131.063 38.8906 130.326 45.2906 125.352C53.2783 119.144 58.1147 104.546 62.7613 90.5206L63.2345 89.093C70.3366 91.0065 76.7432 94.6649 82.2653 98.0418C82.2417 98.4721 82.2297 98.9055 82.2297 99.3417C82.2297 112.214 92.6638 122.649 105.535 122.649C118.406 122.649 128.84 112.214 128.84 99.3417C128.84 86.4695 118.406 76.0346 105.535 76.0346C99.2266 76.0346 93.5037 78.5412 89.3077 82.6127ZM115.76 39.2201C107.507 47.9758 90.419 47.3993 77.8109 45.0371C78.1157 44.1415 78.4817 42.9996 78.9075 41.6713C82.7506 29.6823 91.4603 2.51167 103.904 4.27982C112.302 6.02684 118.231 21.2508 118.972 26.991C119.466 32.232 118.478 36.2252 115.76 39.2201ZM13.4956 92.1296C21.5386 83.4955 41.1297 84.2091 51.9773 86.6446C51.7733 87.2198 51.5379 87.8963 51.2729 88.6582C47.3953 99.8059 37.1576 129.237 25.3524 127.07C16.9539 125.323 11.0255 110.099 10.2844 104.359C9.7904 99.1176 10.7785 95.1245 13.4956 92.1296Z" fill="url(#paint0_linear_1001_4587)"/>
<path d="M193.239 28.9406C193.239 15.3319 199.915 8.65125 213.514 8.65125H230.975V25.7231L219.696 25.724C212.222 25.724 212.243 28.5566 212.274 32.7905C212.296 35.7958 212.278 38.8016 212.278 41.8069L230.975 41.806V58.8788L212.278 58.8796V120.49H193.239V58.8796H179.146V41.8069H193.239V28.9406Z" fill="#EEEEF5"/>
<path d="M263.588 41.9606C263.588 41.9606 260.942 41.9026 253.949 41.9026C246.957 41.9026 244.521 41.9606 244.521 41.9606V120.644H263.588V41.9606Z" fill="#EEEEF5"/>
<path d="M427.685 42.0547V120.738H446.766V42.0547C441.487 42.0559 438.125 42.0555 434.402 42.0551L427.685 42.0547Z" fill="#EEEEF5"/>
<path d="M583.347 40.3227C570.985 40.3227 565.545 45.2713 563.567 48.2404L561.342 51.457V42.0547H542.303V120.738H561.342V72.736C561.342 59.8697 570.737 55.1685 578.649 55.1685C586.562 55.1685 595.957 59.8697 595.957 72.736V120.738H614.996V71.7463C614.749 48.7353 598.43 40.3227 583.347 40.3227Z" fill="#EEEEF5"/>
<path fill-rule="evenodd" clip-rule="evenodd" d="M530.929 75.4578V86.3447C530.929 108.861 518.072 121.48 494.583 121.48C471.094 121.48 458.237 109.108 458.237 86.3447V75.4578C458.237 52.9416 471.094 40.3227 494.583 40.3227C518.072 40.3227 530.929 52.9416 530.929 75.4578ZM510.655 72.736C510.655 62.8388 504.968 55.4159 494.583 55.4159C484.198 55.4159 478.511 62.8388 478.511 72.736V89.0665C478.511 98.9637 484.198 107.129 494.583 107.129C504.968 107.129 510.655 98.9637 510.655 89.0665V72.736Z" fill="#EEEEF5"/>
<path d="M313.111 72.7086C311.537 72.3609 310.005 72.0682 308.542 71.7887C301.097 70.3666 295.462 69.2901 295.462 63.0862C295.462 57.9415 301.033 55.0544 307.709 55.0544C315.933 55.0544 319.526 57.7757 320.138 63.3336H338.083C336.84 49.5607 327.791 40.8175 307.083 40.8175C293.41 40.8175 276.796 46.3702 276.796 63.3336C276.796 81.4837 292.292 86.0917 308.501 89.7471C319.469 92.2206 322.519 93.8519 322.519 99.1554C322.519 104.459 315.526 107.323 308.84 107.339C301.479 107.339 292.753 105.775 292.753 95.9165H274.125C274.815 114.125 288.669 122.349 307.773 122.349C328.813 122.349 341.309 114.041 341.309 98.4196C341.309 80.5532 325.932 75.5413 313.111 72.7086Z" fill="#EEEEF5"/>
<path d="M384.338 71.7887C385.8 72.0682 387.333 72.3609 388.906 72.7086C401.728 75.5413 417.105 80.5532 417.105 98.4196C417.105 114.041 404.609 122.349 383.569 122.349C364.464 122.349 350.61 114.125 349.92 95.9165H368.549C368.549 105.775 377.274 107.339 384.635 107.339C391.322 107.323 398.315 104.459 398.315 99.1554C398.315 93.8519 395.265 92.2206 384.296 89.7471C368.087 86.0917 352.591 81.4837 352.591 63.3336C352.591 46.3702 369.206 40.8175 382.879 40.8175C403.587 40.8175 412.636 49.5607 413.879 63.3336H395.933C395.322 57.7757 391.729 55.0544 383.505 55.0544C376.829 55.0544 371.258 57.9415 371.258 63.0862C371.258 69.2901 376.893 70.3666 384.338 71.7887Z" fill="#EEEEF5"/>
<path d="M264.985 21.0955C264.985 27.1057 260.113 31.978 254.104 31.978C248.094 31.978 243.222 27.1057 243.222 21.0955C243.222 15.0853 248.094 10.2131 254.104 10.2131C260.113 10.2131 264.985 15.0853 264.985 21.0955Z" fill="#EEEEF5"/>
<path d="M437.31 31.9778C443.32 31.9778 448.192 27.1055 448.192 21.0953C448.192 15.0851 443.32 10.2129 437.31 10.2129C431.3 10.2129 426.428 15.0851 426.428 21.0953C426.428 27.1055 431.3 31.9778 437.31 31.9778Z" fill="#EEEEF5"/>
<defs>
<linearGradient id="paint0_linear_1001_4587" x1="0.156769" y1="0.536377" x2="131.872" y2="128.722" gradientUnits="userSpaceOnUse">
<stop stop-color="#FF5274"/>
<stop offset="1" stop-color="#6446FA"/>
</linearGradient>
</defs>
</svg>
