<svg width="144" height="144" fill="none" xmlns="http://www.w3.org/2000/svg"><path d="m23.943 75.386-.006.005c-12.055 12.41-12.053 32.281.18 44.514 12.24 12.24 32.106 12.234 44.494.157l.005-.004c16.668-16.669 39.687-26.985 65.095-26.988 3.305.001 6.568.176 9.786.515l.003 49.915-96.014-.002.004-.004-1.207.001c-11.719.005-23.447-4.467-32.383-13.402C4.965 121.158.498 109.438.502 97.721L.5.505 50.41.5a90.08 90.08 0 0 1 .513 9.784v.002c.005 25.414-10.312 48.432-26.98 65.1Zm58.95-64.458c13.855-13.854 36.356-13.85 50.205 0 13.856 13.855 13.854 36.349 0 50.202-13.854 13.854-36.348 13.856-50.205 0-13.849-13.848-13.854-36.349 0-50.202Z" fill="#FFA2B5" stroke="url(#a)"/><defs><linearGradient id="a" x1="0" y1="0" x2="150.142" y2="6.729" gradientUnits="userSpaceOnUse"><stop stop-color="#FF5274"/><stop offset="1" stop-color="#6446FA"/></linearGradient></defs></svg>
