<svg width="176" height="177" fill="none" xmlns="http://www.w3.org/2000/svg"><path d="M143.611 102.377c-8.327 0-15.988 3.028-21.651 9.086-8.994-4.712-18.987-8.413-29.646-11.106 1.332-3.701 4.997-15.143 6.662-20.19 5.33 1.009 10.992 1.682 16.655 2.018 20.985 1.683 36.974-2.356 47.3-11.778 9.993-9.423 12.325-22.21 12.325-30.96 0-21.2-16.988-38.7-38.307-38.7-1.332 0-13.324-1.01-24.316 7.74-6.995 5.72-15.989 29.277-22.65 48.796-9.994-2.693-18.987-6.73-26.649-11.442v-2.02c0-17.162-13.99-31.296-30.978-31.296S1.378 26.66 1.378 43.822c0 17.162 13.99 31.296 30.978 31.296 8.327 0 15.989-3.028 21.651-9.086 8.994 4.712 18.987 8.413 29.646 11.105-1.332 3.702-4.996 15.144-6.662 20.192-5.33-1.01-10.992-1.683-16.655-2.02-20.985-1.682-36.974 2.356-47.3 11.779C3.043 116.51.711 129.298.711 138.048c0 21.201 16.989 38.7 38.307 38.7h1.998c4.33 0 13.658-1.01 22.318-7.74 6.995-5.721 15.989-29.278 22.651-48.796 9.993 2.692 18.987 6.731 26.648 11.442v2.019c0 17.163 13.99 31.297 30.978 31.297s30.979-14.134 30.979-31.297-13.657-31.296-30.979-31.296Zm12.991-49.47c-6.662 7.068-20.652 9.76-41.97 8.414-2.998-.337-5.996-.337-8.994-1.01 6.329-17.835 11.992-31.633 16.988-41.392 5.663-9.759 11.992-14.134 17.987-13.124 11.326 2.355 19.32 22.883 20.32 30.623.666 7.067-.667 12.452-4.331 16.49ZM18.699 124.25c5.33-5.72 15.989-8.749 31.644-8.749 3.331 0 6.662 0 10.326.336 2.998.337 5.996.337 8.994 1.01-6.329 17.836-11.991 31.633-16.988 41.392-5.996 9.759-11.992 14.134-17.987 13.124-11.326-2.355-19.32-22.883-20.32-30.623-.666-7.067.667-12.451 4.33-16.49Z" fill="url(#a)"/><defs><linearGradient id="a" x1=".711" y1=".711" x2="178.35" y2="173.568" gradientUnits="userSpaceOnUse"><stop stop-color="#FF5274"/><stop offset="1" stop-color="#6446FA"/></linearGradient></defs></svg>
