<svg width="175" height="45" fill="none" xmlns="http://www.w3.org/2000/svg"><path d="M5.621 8.092C5.621 2.664 8.284 0 13.708 0h7.003v6.81h-4.537c-2.663 0-2.959 1.677-2.959 3.157v3.355h7.496v6.71h-7.496v24.573H5.621V20.033H0v-6.81h5.621v-5.13Zm28.6 36.513V13.322h-7.889l.296 31.382h7.594v-.099Zm72.981 0V13.322h-7.89l.296 31.382h7.594v-.099ZM57.595 26.35l-7.594-1.678c-2.465-.592-2.958-1.875-2.958-2.96.098-1.875 1.775-3.06 4.438-3.06 2.465 0 4.24 1.184 4.832 3.158h7.89c-.69-6.02-4.734-8.98-12.525-8.98-2.86 0-12.328.69-12.328 8.881 0 7.402 6.016 9.375 7.89 9.77l7.002 1.58c1.48.295 3.353.986 3.353 3.058 0 1.974-1.676 3.06-4.734 3.06-2.86 0-6.016-1.185-6.607-3.75H38.56C39.251 44.309 49.508 45 52.664 45c8.481 0 12.624-2.96 12.624-8.882 0-6.611-4.142-8.98-7.693-9.77Zm29.685 0-7.594-1.678c-2.465-.592-2.958-1.875-2.958-2.96.098-1.875 1.775-3.06 4.438-3.06 2.465 0 4.24 1.184 4.832 3.158h7.89c-.69-6.02-4.734-8.98-12.525-8.98-2.86 0-12.328.69-12.328 8.881 0 7.402 6.016 9.375 7.89 9.77l7.002 1.58c1.48.295 3.353.986 3.353 3.058 0 1.974-1.676 3.06-4.734 3.06-2.86 0-6.016-1.185-6.607-3.75h-7.693C68.936 44.309 79.193 45 82.35 45c8.482 0 12.624-2.96 12.624-8.882 0-6.611-4.142-8.98-7.693-9.77Zm74.361-13.717c-4.931 0-7.101 1.973-7.89 3.158l-.887 1.282v-3.75h-7.594v31.382h7.594V25.559c0-5.131 3.747-7.006 6.903-7.006 3.156 0 6.904 1.875 6.904 7.006v19.145h7.594v-19.54c-.099-9.177-6.608-12.532-12.624-12.532Zm-20.908 14.013v4.342c0 8.98-5.128 14.013-14.497 14.013s-14.498-4.934-14.498-14.013v-4.342c0-8.98 5.129-14.013 14.498-14.013s14.497 5.033 14.497 14.013Zm-8.087-1.086c0-3.947-2.268-6.908-6.41-6.908s-6.411 2.96-6.411 6.908v6.513c0 3.948 2.269 7.204 6.411 7.204 4.142 0 6.41-3.256 6.41-7.204V25.56ZM34.222 0h-7.89v6.81h7.89V0Zm72.98 0h-7.89v6.81h7.89V0Z" fill="url(#a)"/><defs><linearGradient id="a" x1="0" y1="0" x2="22.358" y2="84.97" gradientUnits="userSpaceOnUse"><stop stop-color="#FF5274"/><stop offset="1" stop-color="#6446FA"/></linearGradient></defs></svg>
