<svg width="1988" height="1118" viewBox="0 0 1988 1118" fill="none" xmlns="http://www.w3.org/2000/svg">
<g clip-path="url(#clip0_1847_6165)">
<rect width="1988" height="1118" fill="white"/>
<rect width="3840" height="2160" fill="#EEEEF5"/>
<path d="M2998.96 2183.68C2998.96 2920.25 2401.72 3517.37 1664.98 3517.37C928.243 3517.37 331 2920.25 331 2183.68C331 1447.11 928.243 850 1664.98 850C2401.72 850 2998.96 1447.11 2998.96 2183.68Z" stroke="url(#paint0_linear_1847_6165)" stroke-width="6"/>
<path d="M1291.79 -577.634C1291.79 -107.339 910.454 273.911 440.052 273.911C-30.3498 273.911 -411.685 -107.339 -411.685 -577.634C-411.685 -1047.93 -30.3498 -1429.18 440.052 -1429.18C910.454 -1429.18 1291.79 -1047.93 1291.79 -577.634Z" stroke="url(#paint1_linear_1847_6165)" stroke-width="6"/>
<path d="M1177.95 725.32C1103.91 697.135 894.502 624.4 818.643 624.4C790.025 624.4 770.493 633.492 759.591 652.13C750.506 667.586 750.145 681.527 750.049 685.302L691 684.861C691 681.679 691.454 653.039 706.899 625.309C721.889 598.033 753.686 565.303 818.643 565.303C920.848 565.303 1187.49 665.768 1198.85 669.859L1177.95 725.32Z" fill="url(#paint2_linear_1847_6165)"/>
<path d="M1006.25 597.576L1001.25 595.303L973.541 663.492L976.611 664.819C977.67 662.651 978.328 660.9 979.5 658.458C1015.36 669.06 1052.14 680.93 1085.29 692.131L1107.09 638.489L1088.92 631.216C1062.57 622.578 1033.5 613.032 1003.52 603.94C1004.43 601.667 1005.34 599.394 1006.25 597.576Z" fill="url(#paint3_linear_1847_6165)"/>
<path d="M914.034 674.857L959.458 575.301L953.104 572.152C950.833 577.153 948.772 582.59 946.552 587.622C927.363 582.997 908.282 578.199 891.021 574.562L865.768 629.754C882.575 632.937 902.041 637.32 922.054 642.463C917.057 652.464 912.27 662.056 907.273 671.148L914.034 674.857Z" fill="url(#paint4_linear_1847_6165)"/>
<path d="M1123.9 643.037C1090.28 631.218 1048.49 617.58 1005.79 604.396L987.575 660.797C1029.25 673.382 1071.13 687.082 1106.63 699.675L1123.9 643.037Z" fill="url(#paint5_linear_1847_6165)"/>
<path d="M818.643 811.691C725.068 811.691 691 735.319 691 683.95L750.065 684.897C749.672 697.836 754.14 752.594 818.643 752.594C878.603 752.594 922.665 646.219 964.91 543.481C1014.42 422.559 1066.21 298 1165.69 298C1216.56 298 1256.53 320.275 1277.88 360.734C1292.87 389.828 1293.33 415.069 1293.33 421.195H1234.28C1234.28 412.99 1233.82 403.466 1224.74 386.646C1213.84 366.644 1194.3 357.097 1165.69 357.097C1105.73 357.097 1061.66 463.472 1019.42 566.21C969.906 686.678 918.122 811.691 818.643 811.691Z" fill="url(#paint6_linear_1847_6165)"/>
<path d="M1037.86 521.846C1045.55 523.829 1053.06 525.751 1060.33 527.569L1061.24 523.932L955.398 497.111L955.009 497.835C963.559 500.572 971.763 503.006 980.398 505.641C974.933 518.899 970.368 531.285 964.917 543.559C959.012 558.561 952.517 573.1 946.612 587.647C942.069 586.283 937.683 585.303 933.14 584.393L927.689 606.214L996.26 621.578C1004.19 603.025 1010.24 588.762 1019.1 566.885C1025.46 551.883 1031.27 537.33 1037.86 521.846Z" fill="url(#paint7_linear_1847_6165)"/>
<path d="M1089.83 476.203L1090.21 474.067C1081.17 472.038 1071.92 469.725 1062.45 467.233C1070.17 450.867 1078.19 435.977 1086.45 422.243L1026.88 407.059C1019.16 421.151 1012.57 434.462 1004.43 451.2C998.071 449.382 991.257 447.109 984.898 445.29L983.989 449.382L1089.83 476.203Z" fill="url(#paint8_linear_1847_6165)"/>
<path d="M1165.69 544.386C1063.48 544.386 796.84 443.921 785.484 439.83L806.38 384.369C880.421 412.554 1089.83 485.289 1165.69 485.289C1194.3 485.289 1213.38 475.742 1224.74 455.74C1233.82 438.92 1234.28 426.878 1234.28 420.737H1293.33C1293.33 470.287 1259.26 544.386 1165.69 544.386Z" fill="url(#paint9_linear_1847_6165)"/>
<path d="M877.242 409.828L859.737 466.562C894.26 478.381 936.778 492.438 980.386 505.621L1026.23 518.476L1043.29 462.22C985.402 446.211 931.811 429.054 877.242 409.828Z" fill="url(#paint10_linear_1847_6165)"/>
<path d="M1188.4 795.779C1242.59 795.779 1286.52 751.817 1286.52 697.587C1286.52 643.357 1242.59 599.395 1188.4 599.395C1134.21 599.395 1090.28 643.357 1090.28 697.587C1090.28 751.817 1134.21 795.779 1188.4 795.779Z" fill="url(#paint11_radial_1847_6165)"/>
<path d="M795.929 510.295C850.118 510.295 894.046 466.332 894.046 412.102C894.046 357.872 850.118 313.91 795.929 313.91C741.741 313.91 697.812 357.872 697.812 412.102C697.812 466.332 741.741 510.295 795.929 510.295Z" fill="url(#paint12_radial_1847_6165)"/>
</g>
<defs>
<linearGradient id="paint0_linear_1847_6165" x1="328" y1="847" x2="3026.24" y2="3495.63" gradientUnits="userSpaceOnUse">
<stop stop-color="#FF5274"/>
<stop offset="1" stop-color="#6446FA"/>
</linearGradient>
<linearGradient id="paint1_linear_1847_6165" x1="-414.685" y1="-1432.18" x2="1310.31" y2="261.1" gradientUnits="userSpaceOnUse">
<stop stop-color="#FF5274"/>
<stop offset="1" stop-color="#6446FA"/>
</linearGradient>
<linearGradient id="paint2_linear_1847_6165" x1="762.747" y1="640.06" x2="1170.93" y2="649.111" gradientUnits="userSpaceOnUse">
<stop stop-color="#8F59D9"/>
<stop offset="1" stop-color="#714EF0"/>
</linearGradient>
<linearGradient id="paint3_linear_1847_6165" x1="1116.09" y1="670.962" x2="984.747" y2="628.781" gradientUnits="userSpaceOnUse">
<stop stop-color="#5E40B8" stop-opacity="0"/>
<stop offset="0.8587" stop-color="#5E40B8" stop-opacity="0.8587"/>
<stop offset="1" stop-color="#5E40B8"/>
</linearGradient>
<linearGradient id="paint4_linear_1847_6165" x1="838.028" y1="580.847" x2="937.309" y2="625.195" gradientUnits="userSpaceOnUse">
<stop offset="0.453125" stop-color="#5E40B8" stop-opacity="0"/>
<stop offset="0.906" stop-color="#5E40B8" stop-opacity="0.8587"/>
<stop offset="1" stop-color="#5E40B8"/>
</linearGradient>
<linearGradient id="paint5_linear_1847_6165" x1="996.846" y1="629.865" x2="1114.81" y2="673.586" gradientUnits="userSpaceOnUse">
<stop stop-color="#6446FA" stop-opacity="0"/>
<stop offset="0.4615" stop-color="#6346F8" stop-opacity="0.4615"/>
<stop offset="0.6276" stop-color="#6144F1" stop-opacity="0.6276"/>
<stop offset="0.7461" stop-color="#5E41E6" stop-opacity="0.7461"/>
<stop offset="0.8419" stop-color="#593DD5" stop-opacity="0.8419"/>
<stop offset="0.9229" stop-color="#5338BF" stop-opacity="0.9229"/>
<stop offset="0.9944" stop-color="#4B32A4" stop-opacity="0.9944"/>
<stop offset="1" stop-color="#4A31A2"/>
</linearGradient>
<linearGradient id="paint6_linear_1847_6165" x1="848.085" y1="710.828" x2="1206.23" y2="318.048" gradientUnits="userSpaceOnUse">
<stop stop-color="#8F59D9"/>
<stop offset="0.9209" stop-color="#D55E9E"/>
</linearGradient>
<linearGradient id="paint7_linear_1847_6165" x1="980.567" y1="619.636" x2="1008.21" y2="510.497" gradientUnits="userSpaceOnUse">
<stop stop-color="#8E4693" stop-opacity="0"/>
<stop offset="0.8587" stop-color="#8E4693" stop-opacity="0.8587"/>
<stop offset="1" stop-color="#8E4693"/>
</linearGradient>
<linearGradient id="paint8_linear_1847_6165" x1="1049.49" y1="412.809" x2="1036.86" y2="462.685" gradientUnits="userSpaceOnUse">
<stop stop-color="#B057A3" stop-opacity="0"/>
<stop offset="0.8587" stop-color="#B057A3" stop-opacity="0.8587"/>
<stop offset="1" stop-color="#B057A3"/>
</linearGradient>
<linearGradient id="paint9_linear_1847_6165" x1="820.484" y1="395.298" x2="1247.55" y2="489.783" gradientUnits="userSpaceOnUse">
<stop stop-color="#F15783"/>
<stop offset="1" stop-color="#D55E9E"/>
</linearGradient>
<linearGradient id="paint10_linear_1847_6165" x1="1035.29" y1="489.988" x2="868.558" y2="439.293" gradientUnits="userSpaceOnUse">
<stop stop-color="#FF5274" stop-opacity="0"/>
<stop offset="0.0738358" stop-color="#F85073" stop-opacity="0.0738358"/>
<stop offset="0.6958" stop-color="#C44268" stop-opacity="0.6958"/>
<stop offset="1" stop-color="#B03C64"/>
</linearGradient>
<radialGradient id="paint11_radial_1847_6165" cx="0" cy="0" r="1" gradientUnits="userSpaceOnUse" gradientTransform="translate(1173.71 691.34) scale(112.294 112.381)">
<stop stop-color="#6E4CEB"/>
<stop offset="0.509" stop-color="#6D4BE9"/>
<stop offset="0.6924" stop-color="#6848E2"/>
<stop offset="0.823" stop-color="#6042D7"/>
<stop offset="0.9279" stop-color="#5539C6"/>
<stop offset="1" stop-color="#4A31B5"/>
</radialGradient>
<radialGradient id="paint12_radial_1847_6165" cx="0" cy="0" r="1" gradientUnits="userSpaceOnUse" gradientTransform="translate(780.744 403.226) scale(115.936 116.025)">
<stop stop-color="#FD5376"/>
<stop offset="0.4728" stop-color="#FB5276"/>
<stop offset="0.6431" stop-color="#F45074"/>
<stop offset="0.7644" stop-color="#E94D71"/>
<stop offset="0.8625" stop-color="#D8486D"/>
<stop offset="0.9456" stop-color="#C24268"/>
<stop offset="1" stop-color="#AF3C64"/>
</radialGradient>
<clipPath id="clip0_1847_6165">
<rect width="1988" height="1118" fill="white"/>
</clipPath>
</defs>
</svg>
