<svg width="160" height="144" fill="none" xmlns="http://www.w3.org/2000/svg"><path d="m12.44 17.144.013-.006.013-.007L40.949.79c.532-.164 1.268-.173 2.042.01L109.91 39.23c.32.249.441.543.441.77 0 .22-.11.438-.387.577l-.013.006-.013.007L81.41 56.955l-.015.009-.014.009c-.231.154-.57.248-.939.248-.368 0-.707-.094-.939-.248l-.014-.01-.014-.008-66.98-38.464c-.32-.249-.441-.543-.441-.771 0-.22.109-.437.386-.576Z" fill="#0A1024" stroke="url(#a)"/><path d="m117.292.765.014-.008.014-.01c.474-.315 1.155-.352 1.92.026l28.929 16.563c.32.249.441.543.441.77 0 .22-.11.438-.387.576l-.012.006-.011.007-28.528 16.144-.016.008-.016.01c-.231.155-.57.248-.939.248-.368 0-.707-.093-.938-.247l-.016-.01-.016-.01-28.94-16.348c-.32-.249-.44-.543-.44-.77 0-.22.11-.437.387-.576l.013-.006.012-.007L117.292.765Z" fill="#0A1024" stroke="url(#b)"/><path d="m84.949 99.195-.015.008-.014.01c-.115.077-.338.093-.594-.065-.25-.154-.398-.397-.398-.625V65.571c0-.471.333-1.21.913-1.81l28.468-16.11.015-.009.016-.01c.115-.077.337-.093.594.065.249.154.398.396.398.625v33.615c0 .28-.138.534-.388.658l-.012.007-.012.007-28.971 16.586Z" fill="#0A1024" stroke="url(#c)"/><path d="m123.017 42.134.012-.006.013-.007 28.515-16.358c.51-.245 1.034.112 1.034.665v76.96c0 .723-.359 1.419-1.051 1.765l-.012.006-.012.007-66.553 38.03c-.51.246-1.035-.111-1.035-.664v-32.951c0-.723.359-1.419 1.05-1.765l.013-.006.012-.007 35.605-20.346.015-.008.015-.01a3.8 3.8 0 0 0 1.055-1.085c.284-.442.494-.978.494-1.542V43.596l-.025-.077c-.116-.347.108-1.011.855-1.385Z" fill="#0A1024" stroke="url(#d)"/><path d="M76.293 99.183v.004c0 .27-.268.518-.627.422L40.552 79.512l-.013-.007-.012-.006c-1.256-.628-2.493.34-2.493 1.553v39.807c0 .229-.148.471-.398.625-.256.158-.479.142-.594.065l-.014-.009-.014-.009L8.5 105.175a2.805 2.805 0 0 1-.755-.785c-.214-.332-.336-.682-.336-1.002V25.985c0-.228.149-.47.398-.624.257-.158.48-.142.594-.065l.014.009.015.009 67.214 38.47c.5.342.87 1.054.87 1.786v.002l-.22 33.611Z" fill="#0A1024" stroke="url(#e)"/><path d="m75.523 143.443-.015-.01-.015-.008-28.734-16.356a2.817 2.817 0 0 1-.755-.785c-.213-.332-.335-.682-.335-1.002V92.06l-.01-.048c-.038-.19-.013-.316.024-.397.036-.08.1-.148.193-.198.194-.105.513-.124.827.029l28.721 16.348c.269.183.546.46.755.785.214.332.336.682.336 1.002v33.172c0 .229-.149.471-.398.625-.257.158-.48.142-.594.065Z" fill="#0A1024" stroke="url(#f)"/><defs><linearGradient id="a" x1="11.553" y1=".166" x2="114.678" y2="8.139" gradientUnits="userSpaceOnUse"><stop stop-color="#FF5274"/><stop offset="1" stop-color="#6446FA"/></linearGradient><linearGradient id="b" x1="87.851" y1="0" x2="151.473" y2="4.905" gradientUnits="userSpaceOnUse"><stop stop-color="#FF5274"/><stop offset="1" stop-color="#6446FA"/></linearGradient><linearGradient id="c" x1="83.428" y1="47.075" x2="116.213" y2="47.951" gradientUnits="userSpaceOnUse"><stop stop-color="#FF5274"/><stop offset="1" stop-color="#6446FA"/></linearGradient><linearGradient id="d" x1="83.428" y1="25.181" x2="156.158" y2="27.096" gradientUnits="userSpaceOnUse"><stop stop-color="#FF5274"/><stop offset="1" stop-color="#6446FA"/></linearGradient><linearGradient id="e" x1="6.909" y1="24.739" x2="80.076" y2="27.1" gradientUnits="userSpaceOnUse"><stop stop-color="#FF5274"/><stop offset="1" stop-color="#6446FA"/></linearGradient><linearGradient id="f" x1="45.14" y1="90.834" x2="78.417" y2="91.728" gradientUnits="userSpaceOnUse"><stop stop-color="#FF5274"/><stop offset="1" stop-color="#6446FA"/></linearGradient></defs></svg>
