<svg width="147" height="144" fill="none" xmlns="http://www.w3.org/2000/svg"><path d="m5.531 17.144.013-.006.012-.007L34.04.79c.532-.164 1.269-.173 2.042.01L103 39.23c.32.249.441.543.441.77 0 .22-.109.438-.387.577l-.013.006-.012.007L74.5 56.955l-.014.009-.014.009c-.231.154-.571.248-.94.248-.367 0-.707-.094-.938-.248l-.014-.01-.014-.008L5.585 18.491c-.32-.249-.441-.543-.441-.771 0-.22.11-.437.387-.576Z" fill="#FFA2B5" stroke="url(#a)"/><path d="m110.382.765.015-.008.014-.01c.474-.315 1.155-.352 1.919.026l28.93 16.563c.32.249.44.543.44.77 0 .22-.109.438-.387.576l-.011.006-.011.007-28.529 16.144-.016.008-.015.01c-.231.155-.571.248-.939.248s-.708-.093-.939-.247l-.015-.01-.016-.01L81.881 18.49c-.32-.249-.44-.543-.44-.77 0-.22.11-.437.388-.576l.012-.006.013-.007L110.382.765Z" fill="#FFA2B5" stroke="url(#b)"/><path d="m78.04 99.195-.015.008-.015.01c-.115.077-.337.093-.594-.065-.25-.154-.397-.397-.397-.625V65.571c0-.471.332-1.21.913-1.81l28.467-16.11.016-.009.015-.01c.115-.077.338-.093.594.065.25.154.398.396.398.625v33.615c0 .28-.137.534-.387.658l-.013.007-.012.007-28.97 16.586Z" fill="#FFA2B5" stroke="url(#c)"/><path d="m116.107 42.134.013-.006.012-.007 28.515-16.358c.51-.245 1.034.112 1.034.665v76.96c0 .723-.358 1.419-1.05 1.765l-.013.006-.012.007-66.553 38.03c-.51.246-1.034-.111-1.034-.664v-32.951c0-.723.358-1.419 1.05-1.765l.013-.006.012-.007 35.605-20.346.015-.008.014-.01a3.79 3.79 0 0 0 1.056-1.085c.284-.442.494-.978.494-1.542V43.596l-.026-.077c-.116-.347.109-1.011.855-1.385Z" fill="#FFA2B5" stroke="url(#d)"/><path d="M69.384 99.183v.004c0 .27-.268.518-.628.422L33.642 79.512l-.012-.007-.013-.006c-1.255-.628-2.492.34-2.492 1.553v39.807c0 .229-.148.471-.398.625-.257.158-.479.142-.594.065l-.014-.009-.015-.009-28.513-16.356a2.805 2.805 0 0 1-.756-.785c-.213-.332-.335-.682-.335-1.002V25.985c0-.228.148-.47.398-.624.256-.158.479-.142.594-.065l.014.009.015.009 67.214 38.47c.5.342.87 1.054.87 1.786v.002l-.221 33.611Z" fill="#FFA2B5" stroke="url(#e)"/><path d="m68.614 143.443-.015-.01-.015-.008-28.734-16.356a2.817 2.817 0 0 1-.755-.785c-.214-.332-.335-.682-.335-1.002V92.06l-.01-.048c-.038-.19-.013-.316.023-.397.037-.08.1-.148.194-.198.194-.105.513-.124.827.029l28.721 16.348c.269.183.546.46.755.785.214.332.335.682.335 1.002v33.172c0 .229-.148.471-.397.625-.257.158-.48.142-.594.065Z" fill="#FFA2B5" stroke="url(#f)"/><defs><linearGradient id="a" x1="4.644" y1=".166" x2="107.768" y2="8.139" gradientUnits="userSpaceOnUse"><stop stop-color="#FF5274"/><stop offset="1" stop-color="#6446FA"/></linearGradient><linearGradient id="b" x1="80.941" y1="0" x2="144.563" y2="4.905" gradientUnits="userSpaceOnUse"><stop stop-color="#FF5274"/><stop offset="1" stop-color="#6446FA"/></linearGradient><linearGradient id="c" x1="76.519" y1="47.075" x2="109.304" y2="47.951" gradientUnits="userSpaceOnUse"><stop stop-color="#FF5274"/><stop offset="1" stop-color="#6446FA"/></linearGradient><linearGradient id="d" x1="76.519" y1="25.181" x2="149.248" y2="27.096" gradientUnits="userSpaceOnUse"><stop stop-color="#FF5274"/><stop offset="1" stop-color="#6446FA"/></linearGradient><linearGradient id="e" x1="0" y1="24.739" x2="73.166" y2="27.1" gradientUnits="userSpaceOnUse"><stop stop-color="#FF5274"/><stop offset="1" stop-color="#6446FA"/></linearGradient><linearGradient id="f" x1="38.231" y1="90.834" x2="71.508" y2="91.728" gradientUnits="userSpaceOnUse"><stop stop-color="#FF5274"/><stop offset="1" stop-color="#6446FA"/></linearGradient></defs></svg>
