<svg width="160" height="160" fill="none" xmlns="http://www.w3.org/2000/svg"><path fill-rule="evenodd" clip-rule="evenodd" d="M126.067 54.378c0 2.325-.171 4.61-.501 6.844 19.058 5.763 32.934 23.46 32.934 44.4 0 25.614-20.764 46.378-46.379 46.378-12.461 0-23.775-4.915-32.108-12.912C71.68 147.085 60.367 152 47.905 152c-25.614 0-46.378-20.764-46.378-46.378 0-20.711 13.576-38.252 32.314-44.208a46.737 46.737 0 0 1-.53-7.036C33.31 28.764 54.075 8 79.689 8s46.378 20.764 46.378 46.378Z" fill="#FFA2B5"/><circle cx="79.878" cy="54.378" r="45.878" stroke="url(#a)"/><circle cx="47.878" cy="105.378" r="45.878" stroke="url(#b)"/><circle cx="111.878" cy="105.378" r="45.878" stroke="url(#c)"/><path d="M83.01 86.097c.598 0 1.075.142 1.432.424.358.283.617.662.777 1.136.16.475.24 1.008.24 1.6 0 .592-.08 1.126-.24 1.6-.155.475-.408.85-.76 1.128-.353.278-.814.416-1.385.416-.58 0-1.069-.173-1.463-.52-.39-.352-.734-.877-1.032-1.576-.176.39-.376.744-.6 1.064a2.716 2.716 0 0 1-.793.752c-.298.187-.656.28-1.072.28-.597 0-1.077-.141-1.44-.424a2.376 2.376 0 0 1-.776-1.136 5.198 5.198 0 0 1-.231-1.6c0-.592.08-1.125.24-1.6.16-.474.416-.85.767-1.128.352-.277.811-.416 1.376-.416.582 0 1.065.176 1.449.528.383.352.733.872 1.047 1.56.187-.384.392-.733.616-1.048.224-.314.486-.565.784-.752.3-.192.654-.288 1.064-.288Zm-4.864 1.088c-.373 0-.658.168-.856.504-.192.336-.288.854-.288 1.552 0 .688.094 1.203.28 1.544.193.342.48.512.865.512.309 0 .57-.106.783-.32.22-.218.408-.496.569-.832a19.1 19.1 0 0 0 .456-1.056c-.118-.256-.254-.53-.409-.824a2.919 2.919 0 0 0-.568-.76 1.142 1.142 0 0 0-.831-.32Zm4.832.024c-.309 0-.573.107-.791.32a2.94 2.94 0 0 0-.56.824c-.16.336-.313.688-.456 1.056.122.25.258.526.407.824.15.299.337.555.56.768.224.208.504.312.84.312.763 0 1.145-.685 1.145-2.056 0-.693-.097-1.208-.288-1.544a.917.917 0 0 0-.856-.504Z" fill="url(#d)"/><path d="M41.76 113.701c0-.96-.1-1.728-.303-2.304-.203-.576-.47-1.008-.8-1.296a2.568 2.568 0 0 0-1.088-.576 4.8 4.8 0 0 0-1.152-.144H37.12v8.768h1.312c.395 0 .786-.061 1.176-.184a2.738 2.738 0 0 0 1.08-.672c.325-.325.584-.776.776-1.352.197-.581.296-1.328.296-2.24Zm1.48 0c0 .918-.098 1.702-.295 2.352-.192.646-.456 1.179-.792 1.6-.336.422-.72.75-1.152.984-.427.23-.877.392-1.352.488a7.26 7.26 0 0 1-1.384.136h-2.528v-11.016h2.352a8.13 8.13 0 0 1 1.88.216 4.167 4.167 0 0 1 1.656.8c.496.384.888.934 1.176 1.648.293.715.44 1.646.44 2.792Z" fill="url(#e)"/><path d="M82.409 44.895h-4.36l-.88 2.808H75.8l3.584-11.016h1.776l3.584 11.016h-1.456l-.88-2.808Zm-4-1.152h3.64l-1.808-5.888-1.832 5.888Z" fill="url(#f)"/><path d="M119.651 107.186c.72 0 1.323.091 1.808.272.486.182.947.448 1.384.8l-.776.904a3.19 3.19 0 0 0-1.104-.624 3.792 3.792 0 0 0-1.208-.192c-.602 0-1.16.144-1.672.432-.512.283-.925.755-1.24 1.416-.309.656-.464 1.547-.464 2.672 0 1.094.147 1.971.44 2.632.299.662.702 1.139 1.208 1.432.507.294 1.072.44 1.696.44.619 0 1.126-.093 1.52-.28.4-.186.747-.4 1.04-.64l.72.912c-.336.326-.773.608-1.312.848-.538.235-1.2.352-1.984.352a4.6 4.6 0 0 1-2.424-.656c-.72-.437-1.29-1.077-1.712-1.92-.421-.848-.632-1.888-.632-3.12 0-1.237.214-2.277.64-3.12.432-.842 1.006-1.48 1.72-1.912a4.488 4.488 0 0 1 2.352-.648Z" fill="url(#g)"/><defs><linearGradient id="a" x1="33.5" y1="8" x2="130.213" y2="12.334" gradientUnits="userSpaceOnUse"><stop stop-color="#FF5274"/><stop offset="1" stop-color="#6446FA"/></linearGradient><linearGradient id="b" x1="1.5" y1="59" x2="98.213" y2="63.334" gradientUnits="userSpaceOnUse"><stop stop-color="#FF5274"/><stop offset="1" stop-color="#6446FA"/></linearGradient><linearGradient id="c" x1="65.5" y1="59" x2="162.213" y2="63.334" gradientUnits="userSpaceOnUse"><stop stop-color="#FF5274"/><stop offset="1" stop-color="#6446FA"/></linearGradient><linearGradient id="d" x1="75.77" y1="77.297" x2="82.545" y2="77.424" gradientUnits="userSpaceOnUse"><stop stop-color="#FF5274"/><stop offset="1" stop-color="#6446FA"/></linearGradient><linearGradient id="e" x1="34.401" y1="102.261" x2="42.53" y2="102.407" gradientUnits="userSpaceOnUse"><stop stop-color="#FF5274"/><stop offset="1" stop-color="#6446FA"/></linearGradient><linearGradient id="f" x1="75.473" y1="30.703" x2="83.602" y2="30.849" gradientUnits="userSpaceOnUse"><stop stop-color="#FF5274"/><stop offset="1" stop-color="#6446FA"/></linearGradient><linearGradient id="g" x1="113.923" y1="101.378" x2="122.053" y2="101.524" gradientUnits="userSpaceOnUse"><stop stop-color="#FF5274"/><stop offset="1" stop-color="#6446FA"/></linearGradient></defs></svg>
