<svg width="157" height="145" viewBox="0 0 157 145" fill="none" xmlns="http://www.w3.org/2000/svg">
<path fill-rule="evenodd" clip-rule="evenodd" d="M124.568 46.8784C124.568 49.2035 124.397 51.4887 124.066 53.7219C143.124 59.4852 157 77.1829 157 98.1216C157 123.736 136.236 144.5 110.622 144.5C98.1601 144.5 86.8466 139.585 78.5135 131.588C70.1804 139.585 58.8668 144.5 46.4054 144.5C20.7913 144.5 0.0269775 123.736 0.0269775 98.1216C0.0269775 77.4105 13.6028 59.8702 32.3411 53.9141C31.992 51.6198 31.8109 49.2702 31.8109 46.8784C31.8109 21.2643 52.5752 0.5 78.1893 0.5C103.803 0.5 124.568 21.2643 124.568 46.8784Z" fill="#070B16"/>
<circle cx="78.3784" cy="46.8784" r="45.8784" stroke="url(#paint0_linear_602_4648)"/>
<circle cx="46.3784" cy="97.8784" r="45.8784" stroke="url(#paint1_linear_602_4648)"/>
<circle cx="110.378" cy="97.8784" r="45.8784" stroke="url(#paint2_linear_602_4648)"/>
<path d="M81.5105 78.5973C82.1078 78.5973 82.5852 78.7386 82.9425 79.0213C83.2998 79.3039 83.5585 79.6826 83.7185 80.1573C83.8785 80.6319 83.9585 81.1653 83.9585 81.7573C83.9585 82.3493 83.8785 82.8826 83.7185 83.3573C83.5638 83.8319 83.3105 84.2079 82.9585 84.4853C82.6065 84.7626 82.1452 84.9013 81.5745 84.9013C80.9932 84.9013 80.5052 84.7279 80.1105 84.3813C79.7212 84.0293 79.3772 83.5039 79.0785 82.8053C78.9025 83.1946 78.7025 83.5493 78.4785 83.8693C78.2545 84.1839 77.9905 84.4346 77.6865 84.6213C77.3878 84.8079 77.0305 84.9013 76.6145 84.9013C76.0172 84.9013 75.5372 84.7599 75.1745 84.4773C74.8172 84.1946 74.5585 83.8159 74.3985 83.3413C74.2438 82.8613 74.1665 82.3279 74.1665 81.7413C74.1665 81.1493 74.2465 80.6159 74.4065 80.1413C74.5665 79.6666 74.8225 79.2906 75.1745 79.0133C75.5265 78.7359 75.9852 78.5973 76.5505 78.5973C77.1318 78.5973 77.6145 78.7733 77.9985 79.1253C78.3825 79.4773 78.7318 79.9973 79.0465 80.6853C79.2332 80.3013 79.4385 79.9519 79.6625 79.6373C79.8865 79.3226 80.1478 79.0719 80.4465 78.8853C80.7452 78.6933 81.0998 78.5973 81.5105 78.5973ZM76.6465 79.6853C76.2732 79.6853 75.9878 79.8533 75.7905 80.1893C75.5985 80.5253 75.5025 81.0426 75.5025 81.7413C75.5025 82.4293 75.5958 82.9439 75.7825 83.2853C75.9745 83.6266 76.2625 83.7973 76.6465 83.7973C76.9558 83.7973 77.2172 83.6906 77.4305 83.4773C77.6492 83.2586 77.8385 82.9813 77.9985 82.6453C78.1585 82.3039 78.3105 81.9519 78.4545 81.5893C78.3372 81.3333 78.2012 81.0586 78.0465 80.7653C77.8918 80.4719 77.7025 80.2186 77.4785 80.0053C77.2598 79.7919 76.9825 79.6853 76.6465 79.6853ZM81.4785 79.7093C81.1692 79.7093 80.9052 79.8159 80.6865 80.0293C80.4732 80.2426 80.2865 80.5173 80.1265 80.8533C79.9665 81.1893 79.8145 81.5413 79.6705 81.9093C79.7932 82.1599 79.9292 82.4346 80.0785 82.7333C80.2278 83.0319 80.4145 83.2879 80.6385 83.5013C80.8625 83.7093 81.1425 83.8133 81.4785 83.8133C82.2412 83.8133 82.6225 83.1279 82.6225 81.7573C82.6225 81.0639 82.5265 80.5493 82.3345 80.2133C82.1478 79.8773 81.8625 79.7093 81.4785 79.7093Z" fill="url(#paint3_linear_602_4648)"/>
<path d="M40.2609 106.201C40.2609 105.241 40.1596 104.473 39.9569 103.897C39.7543 103.321 39.4876 102.889 39.1569 102.601C38.8263 102.313 38.4636 102.121 38.0689 102.025C37.6796 101.929 37.2956 101.881 36.9169 101.881H35.6209V110.649H36.9329C37.3276 110.649 37.7196 110.588 38.1089 110.465C38.5036 110.337 38.8636 110.113 39.1889 109.793C39.5143 109.468 39.7729 109.017 39.9649 108.441C40.1623 107.86 40.2609 107.113 40.2609 106.201ZM41.7409 106.201C41.7409 107.119 41.6423 107.903 41.4449 108.553C41.2529 109.199 40.9889 109.732 40.6529 110.153C40.3169 110.575 39.9329 110.903 39.5009 111.137C39.0743 111.367 38.6236 111.529 38.1489 111.625C37.6796 111.716 37.2183 111.761 36.7649 111.761H34.2369V100.745H36.5889C37.2343 100.745 37.8609 100.817 38.4689 100.961C39.0823 101.105 39.6343 101.372 40.1249 101.761C40.6209 102.145 41.0129 102.695 41.3009 103.409C41.5943 104.124 41.7409 105.055 41.7409 106.201Z" fill="url(#paint4_linear_602_4648)"/>
<path d="M80.9088 37.3948H76.5488L75.6688 40.2028H74.3008L77.8848 29.1868H79.6608L83.2448 40.2028H81.7888L80.9088 37.3948ZM76.9088 36.2428H80.5488L78.7408 30.3548L76.9088 36.2428Z" fill="url(#paint5_linear_602_4648)"/>
<path d="M118.151 99.6864C118.871 99.6864 119.474 99.777 119.959 99.9584C120.445 100.14 120.906 100.406 121.343 100.758L120.567 101.662C120.221 101.369 119.853 101.161 119.463 101.038C119.079 100.91 118.677 100.846 118.255 100.846C117.653 100.846 117.095 100.99 116.583 101.278C116.071 101.561 115.658 102.033 115.343 102.694C115.034 103.35 114.879 104.241 114.879 105.366C114.879 106.46 115.026 107.337 115.319 107.998C115.618 108.66 116.021 109.137 116.527 109.43C117.034 109.724 117.599 109.87 118.223 109.87C118.842 109.87 119.349 109.777 119.743 109.59C120.143 109.404 120.49 109.19 120.783 108.95L121.503 109.862C121.167 110.188 120.73 110.47 120.191 110.71C119.653 110.945 118.991 111.062 118.207 111.062C117.317 111.062 116.509 110.844 115.783 110.406C115.063 109.969 114.493 109.329 114.071 108.486C113.65 107.638 113.439 106.598 113.439 105.366C113.439 104.129 113.653 103.089 114.079 102.246C114.511 101.404 115.085 100.766 115.799 100.334C116.519 99.9024 117.303 99.6864 118.151 99.6864Z" fill="url(#paint6_linear_602_4648)"/>
<defs>
<linearGradient id="paint0_linear_602_4648" x1="32" y1="0.5" x2="128.713" y2="4.83413" gradientUnits="userSpaceOnUse">
<stop stop-color="#FF5274"/>
<stop offset="1" stop-color="#6446FA"/>
</linearGradient>
<linearGradient id="paint1_linear_602_4648" x1="0" y1="51.5" x2="96.7133" y2="55.8341" gradientUnits="userSpaceOnUse">
<stop stop-color="#FF5274"/>
<stop offset="1" stop-color="#6446FA"/>
</linearGradient>
<linearGradient id="paint2_linear_602_4648" x1="64" y1="51.5" x2="160.713" y2="55.8341" gradientUnits="userSpaceOnUse">
<stop stop-color="#FF5274"/>
<stop offset="1" stop-color="#6446FA"/>
</linearGradient>
<linearGradient id="paint3_linear_602_4648" x1="74.2705" y1="69.7973" x2="81.0449" y2="69.9238" gradientUnits="userSpaceOnUse">
<stop stop-color="#FF5274"/>
<stop offset="1" stop-color="#6446FA"/>
</linearGradient>
<linearGradient id="paint4_linear_602_4648" x1="32.9009" y1="94.7613" x2="41.0304" y2="94.907" gradientUnits="userSpaceOnUse">
<stop stop-color="#FF5274"/>
<stop offset="1" stop-color="#6446FA"/>
</linearGradient>
<linearGradient id="paint5_linear_602_4648" x1="73.9728" y1="23.2028" x2="82.1023" y2="23.3485" gradientUnits="userSpaceOnUse">
<stop stop-color="#FF5274"/>
<stop offset="1" stop-color="#6446FA"/>
</linearGradient>
<linearGradient id="paint6_linear_602_4648" x1="112.423" y1="93.8784" x2="120.553" y2="94.0241" gradientUnits="userSpaceOnUse">
<stop stop-color="#FF5274"/>
<stop offset="1" stop-color="#6446FA"/>
</linearGradient>
</defs>
</svg>
