<svg width="144" height="144" viewBox="0 0 144 144" fill="none" xmlns="http://www.w3.org/2000/svg">
<path d="M0.5 19.2C0.5 12.5371 1.94822 7.89657 4.94208 4.91251C7.93626 1.92812 12.5773 0.5 19.2 0.5H124.8C131.332 0.5 135.977 1.98323 138.995 4.99911C142.012 8.01493 143.5 12.659 143.5 19.2H144C143.5 19.2 143.5 19.2001 143.5 19.2003V19.2011V19.2026V19.2046V19.2071V19.2102V19.2139V19.2182V19.223V19.2284V19.2343V19.2409V19.2479V19.2555V19.2637V19.2725V19.2818V19.2916V19.302V19.313V19.3245V19.3365V19.3491V19.3623V19.376V19.3902V19.405V19.4204V19.4362V19.4527V19.4696V19.4871V19.5052V19.5238V19.5429V19.5626V19.5828V19.6035V19.6248V19.6465V19.6689V19.6917V19.7151V19.739V19.7635V19.7885V19.814V19.84V19.8665V19.8936V19.9212V19.9493V19.978V20.0071V20.0368V20.067V20.0977V20.1289V20.1606V20.1929V20.2256V20.2589V20.2927V20.327V20.3618V20.3971V20.4329V20.4692V20.506V20.5434V20.5812V20.6195V20.6583V20.6977V20.7375V20.7778V20.8186V20.8599V20.9018V20.9441V20.9869V21.0301V21.0739V21.1182V21.1629V21.2082V21.2539V21.3001V21.3468V21.394V21.4417V21.4898V21.5384V21.5875V21.6371V21.6872V21.7377V21.7887V21.8402V21.8922V21.9446V21.9975V22.0509V22.1047V22.1591V22.2138V22.2691V22.3248V22.381V22.4376V22.4947V22.5523V22.6103V22.6688V22.7278V22.7872V22.847V22.9073V22.9681V23.0293V23.091V23.1532V23.2157V23.2788V23.3422V23.4062V23.4705V23.5354V23.6006V23.6663V23.7325V23.7991V23.8661V23.9336V24.0015V24.0699V24.1387V24.2079V24.2776V24.3476V24.4182V24.4891V24.5605V24.6324V24.7046V24.7773V24.8504V24.9239V24.9979V25.0723V25.1471V25.2223V25.2979V25.374V25.4505V25.5274V25.6047V25.6825V25.7606V25.8392V25.9182V25.9976V26.0774V26.1576V26.2382V26.3193V26.4007V26.4826V26.5648V26.6475V26.7305V26.814V26.8979V26.9821V27.0668V27.1519V27.2373V27.3232V27.4094V27.4961V27.5831V27.6706V27.7584V27.8466V27.9352V28.0242V28.1136V28.2034V28.2935V28.3841V28.475V28.5663V28.658V28.7501V28.8425V28.9354V29.0286V29.1221V29.2161V29.3104V29.4052V29.5002V29.5957V29.6915V29.7877V29.8843V29.9812V30.0785V30.1762V30.2742V30.3726V30.4713V30.5705V30.6699V30.7698V30.87V30.9705V31.0714V31.1727V31.2743V31.3763V31.4786V31.5813V31.6844V31.7877V31.8915V31.9956V32.1V32.2048V32.3099V32.4154V32.5212V32.6273V32.7338V32.8406V32.9478V33.0553V33.1632V33.2714V33.3799V33.4887V33.5979V33.7074V33.8173V33.9275V34.038V34.1488V34.26V34.3715V34.4833V34.5954V34.7079V34.8207V34.9338V35.0472V35.161V35.2751V35.3894V35.5041V35.6192V35.7345V35.8501V35.9661V36.0824V36.199V36.3158V36.433V36.5506V36.6684V36.7865V36.9049V37.0236V37.1427V37.262V37.3816V37.5016V37.6218V37.7423V37.8632V37.9843V38.1057V38.2274V38.3494V38.4717V38.5943V38.7172V38.8404V38.9638V39.0876V39.2116V39.3359V39.4605V39.5854V39.7105V39.836V39.9617V40.0877V40.214V40.3406V40.4674V40.5945V40.7219V40.8495V40.9775V41.1057V41.2341V41.3629V41.4919V41.6212V41.7507V41.8805V42.0106V42.1409V42.2715V42.4024V42.5335V42.6649V42.7965V42.9284V43.0605V43.1929V43.3256V43.4585V43.5917V43.7251V43.8587V43.9927V44.1268V44.2612V44.3959V44.5308V44.6659V44.8013V44.937V45.0728V45.209V45.3453V45.4819V45.6187V45.7558V45.8931V46.0307V46.1684V46.3064V46.4447V46.5831V46.7218V46.8608V46.9999V47.1393V47.2789V47.4187V47.5588V47.6991V47.8396V47.9803V48.1212V48.2624V48.4038V48.5454V48.6872V48.8292V48.9714V49.1139V49.2565V49.3994V49.5425V49.6858V49.8293V49.973V50.1169V50.261V50.4054V50.5499V50.6946V50.8396V50.9847V51.13V51.2755V51.4213V51.5672V51.7133V51.8596V52.0061V52.1528V52.2997V52.4468V52.594V52.7415V52.8891V53.0369V53.185V53.3332V53.4815V53.6301V53.7788V53.9278V54.0769V54.2262V54.3756V54.5252V54.6751V54.825V54.9752V55.1255V55.276V55.4267V55.5775V55.7286V55.8797V56.0311V56.1826V56.3343V56.4861V56.6381V56.7903V56.9426V57.0951V57.2477V57.4005V57.5535V57.7066V57.8598V58.0133V58.1668V58.3206V58.4744V58.6285V58.7826V58.937V59.0914V59.246V59.4008V59.5557V59.7107V59.8659V60.0213V60.1767V60.3323V60.4881V60.644V60.8V60.9561V61.1124V61.2688V61.4254V61.5821V61.7389V61.8958V62.0529V62.2101V62.3674V62.5249V62.6824V62.8401V62.9979V63.1559V63.3139V63.4721V63.6304V63.7888V63.9473V64.106V64.2647V64.4236V64.5826V64.7417V64.9009V65.0602V65.2196V65.3792V65.5388V65.6985V65.8584V66.0183V66.1784V66.3385V66.4988V66.6591V66.8196V66.9801V67.1408V67.3015V67.4623V67.6233V67.7843V67.9454V68.1066V68.2679V68.4293V68.5907V68.7523V68.9139V69.0756V69.2374V69.3993V69.5613V69.7234V69.8855V70.0477V70.21V70.3724V70.5348V70.6973V70.8599V71.0226V71.1853V71.3481V71.511V71.6739V71.8369V72V72.1631V72.3261V72.489V72.6519V72.8147V72.9774V73.1401V73.3027V73.4652V73.6276V73.79V73.9523V74.1145V74.2766V74.4387V74.6007V74.7626V74.9244V75.0861V75.2477V75.4093V75.5707V75.7321V75.8934V76.0546V76.2157V76.3767V76.5377V76.6985V76.8592V77.0199V77.1804V77.3409V77.5012V77.6615V77.8216V77.9817V78.1416V78.3015V78.4612V78.6208V78.7804V78.9398V79.0991V79.2583V79.4174V79.5764V79.7353V79.894V80.0527V80.2112V80.3696V80.5279V80.6861V80.8441V81.0021V81.1599V81.3176V81.4752V81.6326V81.7899V81.9471V82.1042V82.2611V82.4179V82.5746V82.7312V82.8876V83.0439V83.2V83.356V83.5119V83.6677V83.8233V83.9787V84.1341V84.2893V84.4443V84.5992V84.754V84.9086V85.063V85.2174V85.3715V85.5256V85.6794V85.8332V85.9867V86.1402V86.2934V86.4465V86.5995V86.7523V86.9049V87.0574V87.2097V87.3619V87.5139V87.6657V87.8174V87.9689V88.1203V88.2714V88.4225V88.5733V88.724V88.8745V89.0248V89.175V89.3249V89.4748V89.6244V89.7738V89.9231V90.0722V90.2212V90.3699V90.5185V90.6668V90.815V90.9631V91.1109V91.2585V91.406V91.5532V91.7003V91.8472V91.9939V92.1404V92.2867V92.4328V92.5787V92.7245V92.87V93.0153V93.1605V93.3054V93.4501V93.5946V93.739V93.8831V94.027V94.1707V94.3142V94.4575V94.6006V94.7435V94.8861V95.0286V95.1708V95.3128V95.4546V95.5962V95.7376V95.8788V96.0197V96.1604V96.3009V96.4412V96.5813V96.7211V96.8607V97.0001V97.1392V97.2782V97.4169V97.5553V97.6936V97.8316V97.9693V98.1069V98.2442V98.3813V98.5181V98.6547V98.791V98.9272V99.063V99.1987V99.3341V99.4692V99.6041V99.7388V99.8732V100.007V100.141V100.275V100.408V100.542V100.674V100.807V100.939V101.072V101.204V101.335V101.467V101.598V101.729V101.859V101.989V102.12V102.249V102.379V102.508V102.637V102.766V102.894V103.023V103.15V103.278V103.406V103.533V103.659V103.786V103.912V104.038V104.164V104.289V104.415V104.539V104.664V104.788V104.912V105.036V105.16V105.283V105.406V105.528V105.651V105.773V105.894V106.016V106.137V106.258V106.378V106.498V106.618V106.738V106.857V106.976V107.095V107.214V107.332V107.449V107.567V107.684V107.801V107.918V108.034V108.15V108.266V108.381V108.496V108.611V108.725V108.839V108.953V109.066V109.179V109.292V109.405V109.517V109.629V109.74V109.851V109.962V110.073V110.183V110.293V110.402V110.511V110.62V110.729V110.837V110.945V111.052V111.159V111.266V111.373V111.479V111.585V111.69V111.795V111.9V112.004V112.109V112.212V112.316V112.419V112.521V112.624V112.726V112.827V112.929V113.029V113.13V113.23V113.33V113.43V113.529V113.627V113.726V113.824V113.922V114.019V114.116V114.212V114.308V114.404V114.5V114.595V114.69V114.784V114.878V114.971V115.065V115.157V115.25V115.342V115.434V115.525V115.616V115.706V115.797V115.886V115.976V116.065V116.153V116.242V116.329V116.417V116.504V116.591V116.677V116.763V116.848V116.933V117.018V117.102V117.186V117.269V117.353V117.435V117.517V117.599V117.681V117.762V117.842V117.923V118.002V118.082V118.161V118.239V118.318V118.395V118.473V118.549V118.626V118.702V118.778V118.853V118.928V119.002V119.076V119.15V119.223V119.295V119.368V119.439V119.511V119.582V119.652V119.722V119.792V119.861V119.93V119.998V120.066V120.134V120.201V120.268V120.334V120.399V120.465V120.529V120.594V120.658V120.721V120.784V120.847V120.909V120.971V121.032V121.093V121.153V121.213V121.272V121.331V121.39V121.448V121.505V121.562V121.619V121.675V121.731V121.786V121.841V121.895V121.949V122.002V122.055V122.108V122.16V122.211V122.262V122.313V122.363V122.412V122.462V122.51V122.558V122.606V122.653V122.7V122.746V122.792V122.837V122.882V122.926V122.97V123.013V123.056V123.098V123.14V123.181V123.222V123.263V123.302V123.342V123.38V123.419V123.457V123.494V123.531V123.567V123.603V123.638V123.673V123.707V123.741V123.774V123.807V123.839V123.871V123.902V123.933V123.963V123.993V124.022V124.051V124.079V124.106V124.133V124.16V124.186V124.212V124.237V124.261V124.285V124.308V124.331V124.353V124.375V124.397V124.417V124.437V124.457V124.476V124.495V124.513V124.53V124.547V124.564V124.58V124.595V124.61V124.624V124.638V124.651V124.663V124.676V124.687V124.698V124.708V124.718V124.728V124.736V124.744V124.752V124.759V124.766V124.772V124.777V124.782V124.786V124.79V124.793V124.795V124.797V124.799V124.8C143.5 124.8 143.5 124.8 144 124.8H143.5C143.5 131.316 142.039 135.96 139.035 138.982C136.031 142.003 131.388 143.5 124.8 143.5H19.2C12.6709 143.5 8.02528 141.946 5.00564 138.892C1.98495 135.838 0.5 131.19 0.5 124.8V19.2Z" fill="#070B16" stroke="url(#paint0_linear_827_5686)"/>
<path d="M54.758 34.4667L54.7585 34.4615C55.5204 25.5546 62.9267 18.7195 71.8042 18.7195C80.6441 18.7195 88.032 25.4985 88.8413 34.3631L94.514 96.5012C94.9065 100.801 98.4918 104.096 102.79 104.096C107.64 104.096 111.454 99.9378 111.074 95.0808L105.87 28.567C105.454 23.2549 109.625 18.7195 114.912 18.7195C121.469 18.7195 126.518 25.8714 124.601 32.6901C121.741 42.8641 118.953 56.5752 118.953 71.4036C118.953 79.9199 119.873 88.1528 121.193 95.5897C122.488 102.883 120.505 110.316 116.429 115.924C112.355 121.531 106.217 125.281 99.2145 125.281H98.3635C87.5736 125.281 78.8213 116.478 78.8213 105.613V47.1265C78.8213 43.1406 75.6093 39.904 71.6406 39.904C67.6719 39.904 64.4599 43.1406 64.4599 47.1265V74.2332C64.4599 78.3759 60.8093 81.5478 56.7442 80.9525C53.2132 80.4353 50.69 77.2371 50.9952 73.6531C50.9953 73.6523 50.9954 73.6514 50.9954 73.6506L54.758 34.4667ZM38.9939 29.4669L32.5596 94.9819C32.0805 99.8603 35.8893 104.096 40.7695 104.096C45.0361 104.096 48.5952 100.825 48.9849 96.5565L49.0153 96.2233C49.183 94.3858 50.8594 93.0807 52.6621 93.3714L57.7466 94.1913C61.6124 94.8146 64.4599 98.1722 64.4599 102.118V109.083C64.4599 118.032 57.2515 125.281 48.3661 125.281H44.6303C37.5763 125.281 31.4366 121.539 27.3144 115.815C23.1799 110.076 21.2159 102.514 22.4674 95.2761C23.7405 87.9135 24.5873 79.781 24.4889 71.3714C24.3201 56.9382 21.6794 43.5631 18.9519 33.4843C16.9943 26.2505 22.3465 18.7195 29.3202 18.7195C35.0635 18.7195 39.5595 23.7071 38.9939 29.4669Z" fill="#1F223D" stroke="url(#paint1_linear_827_5686)"/>
<defs>
<linearGradient id="paint0_linear_827_5686" x1="0" y1="0" x2="150.142" y2="6.72851" gradientUnits="userSpaceOnUse">
<stop stop-color="#FF5274"/>
<stop offset="1" stop-color="#6446FA"/>
</linearGradient>
<linearGradient id="paint1_linear_827_5686" x1="18.045" y1="18.2195" x2="130.095" y2="23.2365" gradientUnits="userSpaceOnUse">
<stop stop-color="#FF5274"/>
<stop offset="1" stop-color="#6446FA"/>
</linearGradient>
</defs>
</svg>
