<svg xmlns="http://www.w3.org/2000/svg" width="187" height="94" fill="none" viewBox="0 0 187 94">
  <path fill="url(#paint0_linear)" fill-rule="evenodd" d="M29.771 76.512a12.041 12.041 0 0110.727-6.558c6.65 0 12.04 5.383 12.04 12.023S47.148 94 40.498 94a12.041 12.041 0 01-10.727-6.558H18.607C8.331 87.442 0 79.122 0 68.86c0-10.263 8.33-18.582 18.607-18.582h26.231l-4.43-6.558h-21.8C8.33 43.721 0 35.401 0 25.14 0 14.877 8.33 6.558 18.607 6.558c5.96 0 10.946 2.298 14.562 7.015.236.308 1.142 1.62 3.277 4.736l9.782 14.482h33.674c4.232 0 7.662-3.426 7.662-7.651 0-4.226-3.43-7.652-7.662-7.652H68.74a12.041 12.041 0 01-10.728 6.559c-6.65 0-12.04-5.384-12.04-12.024C45.971 5.383 51.361 0 58.011 0c4.68 0 8.735 2.665 10.727 6.558h11.164c10.277 0 18.608 8.32 18.608 18.582S90.179 43.72 79.902 43.72H53.61l4.43 6.558h21.862c10.277 0 18.608 8.32 18.608 18.581 0 10.263-8.331 18.582-18.608 18.582-5.688 0-10.965-2.572-14.683-7.18l-2.707-3.817L52.221 61.21H18.607c-4.231 0-7.661 3.426-7.661 7.651 0 4.226 3.43 7.652 7.661 7.652h11.164zm41.743-6.283l2.426 3.437a7.64 7.64 0 005.962 2.846c4.232 0 7.662-3.426 7.662-7.651 0-4.226-3.43-7.652-7.662-7.652h-14.48l6.092 9.02zM24.477 20.217c.043.055 1.194 1.722 2.915 4.234l5.633 8.34H18.607c-4.231 0-7.661-3.426-7.661-7.651 0-4.226 3.43-7.652 7.661-7.652 2.653 0 4.394.803 5.87 2.729z" clip-rule="evenodd"/>
  <path fill="#6446FA" d="M186.011 47.39c0 22.308-18.083 40.391-40.39 40.391h-23.157V60.854h23.157c7.436 0 13.463-6.027 13.463-13.463 0-1.122-.137-2.213-.396-3.254-1.455-5.864-6.753-10.21-13.067-10.21h-23.157V7h23.157c4.573 0 8.968.76 13.067 2.161 15.894 5.431 27.323 20.496 27.323 38.23z"/>
  <path fill="url(#paint1_linear)" d="M158.688 9.161v34.976c-1.455-5.864-6.753-10.21-13.067-10.21h-23.157V7h23.157c4.573 0 8.968.76 13.067 2.161z"/>
  <path fill="url(#paint2_linear)" d="M186.011 47.39c0 22.308-18.083 40.391-40.39 40.391h-23.157V60.854h23.157c7.436 0 13.463-6.027 13.463-13.463 0-7.436-6.027-13.464-13.463-13.464h-23.157V7h23.157c22.307 0 40.39 18.084 40.39 40.39z"/>
  <path fill="#6446FA" d="M135.927 20.463v53.855c0 7.436-6.027 13.463-13.463 13.463-7.436 0-13.464-6.027-13.464-13.463V20.463C109 13.028 115.028 7 122.464 7c7.436 0 13.463 6.028 13.463 13.463z"/>
  <defs>
    <linearGradient id="paint0_linear" x1="-9.667" x2="34.275" y1="35.241" y2="103.542" gradientUnits="userSpaceOnUse">
      <stop stop-color="#FF5274"/>
      <stop offset="1" stop-color="#6446FA"/>
    </linearGradient>
    <linearGradient id="paint1_linear" x1="122.464" x2="158.688" y1="25.568" y2="25.568" gradientUnits="userSpaceOnUse">
      <stop stop-color="#46427D"/>
      <stop offset="1" stop-color="#6446FA" stop-opacity="0"/>
    </linearGradient>
    <linearGradient id="paint2_linear" x1="165.681" x2="144.044" y1="-35.919" y2="86.792" gradientUnits="userSpaceOnUse">
      <stop stop-color="#46427D"/>
      <stop offset="1" stop-color="#6446FA" stop-opacity="0"/>
    </linearGradient>
  </defs>
</svg>
